<?xml version="1.0" encoding="UTF-8"?>
<svg width="119px" height="106px" viewBox="0 0 119 106" version="1.1" xmlns="http://www.w3.org/2000/svg" xmlns:xlink="http://www.w3.org/1999/xlink">
    <title>almofada</title>
    <g id="casa-damiao" stroke="none" stroke-width="1" fill="none" fill-rule="evenodd">
        <g id="peuga" transform="translate(-79.000000, -325.000000)">
            <g id="almofada" transform="translate(81.000000, 328.000000)">
                <path d="M17.5830426,16.8999025 C14.906021,16.8706724 14.8040389,17.6481457 12.3706242,15.9534994 C9.9372096,14.2588531 5.28938491,10.4551575 3.45396926,12.6798001 C2.23035882,14.1628951 2.73757964,16.4364102 4.97563171,19.5003454 L9.02626953,24.9643616 C10.3232318,26.4918894 10.5142829,28.2738849 9.59942285,30.310348 C8.2271328,33.3650428 2.93605988,57.877389 10.7580692,77.3918685 C11.8331059,79.2454237 11.70672,81.1466602 10.3789114,83.095578 C6.61466994,89.0553123 5.49314614,92.5248539 7.01433999,93.5042028 C8.53553383,94.4835518 12.0584347,94.0461876 17.5830426,92.1921102 C19.7560169,91.2796177 21.5822607,91.0514946 23.0617742,91.5077408 C25.2810444,92.1921102 77.6593201,94.6238595 95.0177329,90.9751818 C96.1600989,90.9751818 97.6838124,91.484093 99.5888734,92.5019153 C104.610679,94.8267353 107.735149,95.4556745 108.962283,94.388733 C110.189417,93.3217916 109.119088,90.1605097 105.751295,84.9048875 C104.255655,82.9279189 104.020928,80.4235792 105.047113,77.3918685 C106.586391,72.8443023 111.729329,55.8652026 106.258105,27.7513839 C105.920232,26.6953236 106.568361,25.2924512 108.202494,23.5427668 C112.80229,18.5613092 114.389473,15.238101 112.964045,13.5731421 C111.538616,11.9081832 108.488079,12.7016356 103.812433,15.9534994 C101.931022,17.2153702 100.342323,17.5308379 99.0463359,16.8999025 C97.1023548,15.9534994 58.1375379,8.75745895 17.5830426,16.8999025 Z" id="Path-17" fill="#A05EDF"></path>
                <polyline id="Path-37" stroke="#000000" stroke-width="2.10983607" stroke-linecap="round" points="40 68 42.53832 95.0758279 41.26916 101 52 98.8184241 52 70.5869052"></polyline>
                <polyline id="Path-38" stroke="#000000" stroke-width="2.10983607" stroke-linecap="round" points="59 70.0316711 59 98.1710697 71 101 69.4571667 95.3990864 71 68"></polyline>
                <path d="M14.0679339,48.9869569 C8.86329583,43.6710144 4.53682995,43.6710144 1.08853626,48.9869569 C-2.35975742,54.3028993 2.38464519,67.9526204 15.3217441,89.9361201 L15.3217441,99 L28,92.7902098 L17.8047428,60.425002" id="Path-34" stroke="#000000" stroke-width="2.10983607" stroke-linecap="round"></path>
                <path d="M101.067934,48.9869569 C95.8632958,43.6710144 91.5368299,43.6710144 88.0885363,48.9869569 C84.6402426,54.3028993 89.3846452,67.9526204 102.321744,89.9361201 L102.321744,99 L115,92.7902098 L104.804743,60.425002" id="Path-34-Copy" stroke="#000000" stroke-width="2.10983607" stroke-linecap="round" transform="translate(101.000000, 72.000000) scale(-1, 1) translate(-101.000000, -72.000000) "></path>
                <circle id="Oval" stroke="#000000" stroke-width="2.10983607" stroke-linecap="round" transform="translate(58.481191, 11.619973) rotate(12.000000) translate(-58.481191, -11.619973) " cx="58.4811906" cy="11.619973" r="4.09090909"></circle>
                <path d="M62.1240502,10.2040206 L68.7348625,0.843793939 C70.5860323,6.33550282 71.5116172,12.5421905 71.5116172,19.4638568 C69.6604474,18.6450702 67.1762073,17.291859 64.0588969,15.4042234" id="Path-39" stroke="#000000" stroke-width="2.10983607" stroke-linecap="round" transform="translate(66.817834, 10.153825) rotate(12.000000) translate(-66.817834, -10.153825) "></path>
                <path d="M54.1875317,8.48187057 L44.1151743,0.928243294 C44.3441497,9.66462569 45.5042636,16.0091543 47.5955159,19.961829 C49.6873378,17.6498603 52.1554624,15.0971553 54.9998896,12.3037141" id="Path-40" stroke="#000000" stroke-width="2.10983607" stroke-linecap="round" transform="translate(49.557532, 10.445036) rotate(12.000000) translate(-49.557532, -10.445036) "></path>
                <circle id="Oval-Copy-42" fill="#000000" cx="66" cy="37" r="3"></circle>
                <circle id="Oval-Copy-43" fill="#000000" cx="51" cy="37" r="3"></circle>
                <polygon id="Path-35-Copy" stroke="#000000" stroke-width="2.10983607" stroke-linecap="round" points="57.998568 38 50 56 65 56"></polygon>
            </g>
        </g>
    </g>
</svg>