<?xml version="1.0" encoding="UTF-8"?>
<svg width="90px" height="133px" viewBox="0 0 90 133" version="1.1" xmlns="http://www.w3.org/2000/svg" xmlns:xlink="http://www.w3.org/1999/xlink">
    <title>Group 30</title>
    <g id="casa-damiao" stroke="none" stroke-width="1" fill="none" fill-rule="evenodd">
        <g id="chiclete" transform="translate(-666.000000, -62.000000)">
            <g id="austronaut" transform="translate(632.000000, 47.000000)">
                <g id="Group-2-Copy-6" transform="translate(35.000000, 15.000000)">
                    <g id="Group-30" transform="translate(-0.000026, 0.000000)">
                        <circle id="Oval" fill="#DC3A14" cx="44.2325757" cy="79.9767442" r="42.9767442"></circle>
                        <path d="M45.9042743,44.8267196 C54.2768564,57.0478714 66.3597605,62.0340165 82.1529865,59.7851549" id="Path-6-Copy-2" stroke="#000000" stroke-width="1.95348837"></path>
                        <path d="M1.38544243,50.3858113 C11.1623015,64.2085357 23.4463313,68.8201288 38.2375317,64.2205905" id="Path-6-Copy-3" stroke="#000000" stroke-width="1.95348837" transform="translate(19.811487, 58.164486) scale(-1, 1) rotate(15.000000) translate(-19.811487, -58.164486) "></path>
                        <path d="M52.9064851,44 C58.6907548,51.2594959 66.9144812,54.5023812 77.5776645,53.7286558" id="Path-7-Copy" stroke="#000000" stroke-width="1.95348837"></path>
                        <path d="M4.99307134,61.9793923 C18.0506282,61.0785522 26.1396812,55.5462858 29.2602305,45.3825933" id="Path-8-Copy" stroke="#000000" stroke-width="1.95348837"></path>
                        <path d="M26.7353212,75.7554504 C33.6460352,80.5844952 34.5760914,86.2949364 29.5254896,92.886774" id="Path" stroke="#000000" stroke-width="1.95348837"></path>
                        <line x1="32.7243741" y1="82.8390617" x2="56.9426476" y2="79.9767442" id="Path-2" stroke="#000000" stroke-width="1.95348837"></line>
                        <path d="M61.2459259,72.2472924 C55.4461027,77.456297 55.7494494,83.2873522 62.155966,89.7404579" id="Path-3" stroke="#000000" stroke-width="1.95348837"></path>
                        <circle id="Oval" fill="#000000" cx="66.3721106" cy="75.4186047" r="1.30232558"></circle>
                        <circle id="Oval-Copy" fill="#000000" cx="72.2325757" cy="79.3255814" r="1.30232558"></circle>
                        <circle id="Oval-Copy-2" fill="#000000" cx="67.0232734" cy="85.1860465" r="1.30232558"></circle>
                        <circle id="Oval-Copy-3" fill="#000000" cx="61.813971" cy="80.627907" r="1.30232558"></circle>
                        <circle id="Oval-Copy-4" fill="#000000" cx="21.441878" cy="80.627907" r="1.30232558"></circle>
                        <circle id="Oval-Copy-5" fill="#000000" cx="17.5349013" cy="86.4883721" r="1.30232558"></circle>
                        <circle id="Oval-Copy-6" fill="#000000" cx="24.697692" cy="89.744186" r="1.30232558"></circle>
                        <circle id="Oval-Copy-7" fill="#000000" cx="27.3023431" cy="83.8837209" r="1.30232558"></circle>
                        <polyline id="Path-41-Copy-5" stroke="#000000" stroke-width="1.95348837" transform="translate(74.406998, 93.438610) scale(-1, 1) translate(-74.406998, -93.438610) " points="61.813971 86.5296769 71.813971 100.347543 87.0000256 98.3036644"></polyline>
                        <polyline id="Path-41-Copy-6" stroke="#000000" stroke-width="1.95348837" points="1.25583151 87.7906977 13.9083086 102.999913 29.7298476 99.6388803"></polyline>
                        <path d="M21.9999479,4 C20.6677536,4 20.6656831,6 21.9999479,6 C23.3321422,6 23.3346269,4 21.9999479,4" id="Fill-21" fill="#FFFFFF"></path>
                        <path d="M16.6290784,113 L10.0000256,116.862406 C10.0000256,116.862406 30.0608264,139.97243 69.0000256,127.098553 L67.4376528,119.469753 C67.4376528,119.469753 43.0594899,132.456254 16.6290784,113" id="Fill-1" fill="#FFFFFF" transform="translate(39.500026, 122.000000) rotate(-2.000000) translate(-39.500026, -122.000000) "></path>
                        <path d="M65.0718754,123.774827 C65.0989454,122.885442 64.4188639,121.94386 63.25652,122.205252 C62.5060565,122.374484 61.9638237,123.168854 62.0912609,123.912251 C62.2186981,124.655649 62.9958152,125.233076 63.7612713,125.153558 C64.6458354,125.06099 65.0523017,124.432181 65.0718754,123.774827" id="Fill-6" fill="#232744" transform="translate(63.572654, 123.660889) rotate(-2.000000) translate(-63.572654, -123.660889) "></path>
                        <path d="M58.7149056,123.792762 C57.8885192,122.909089 56.3670007,123.521921 56.2329707,124.598602 C56.1584214,124.755446 56.1124229,124.926834 56.1112087,125.101367 C56.1068714,125.766087 56.6830419,126.271212 57.3198829,126.355726 C58.7153021,126.540873 59.6951489,124.840354 58.7149056,123.792762" id="Fill-8" fill="#232744" transform="translate(57.611209, 124.869677) rotate(-2.000000) translate(-57.611209, -124.869677) "></path>
                        <path d="M18.2214276,117.74257 C16.9887495,117.867966 16.3950246,119.554339 17.3982716,120.329771 C17.4800938,120.392874 17.5664389,120.442223 17.6548397,120.4851 C17.6869107,120.508562 17.7161036,120.535259 17.7502304,120.555484 C18.3246304,120.897289 19.0721317,120.72578 19.5174253,120.254534 C20.4306268,119.287771 19.5408619,117.608679 18.2214276,117.74257" id="Fill-10" fill="#86A8E2" transform="translate(18.390670, 119.235022) rotate(-2.000000) translate(-18.390670, -119.235022) "></path>
                        <path d="M49.980393,126.330229 C49.8745119,126.246473 49.7678163,126.217511 49.497005,126.21438 C49.3829792,126.212815 49.259587,126.227296 49.1398599,126.241777 L48.6259292,126.303615 C48.4125381,126.331403 48.2048482,126.321619 47.984534,126.343536 C47.8460741,126.359583 47.7047635,126.372107 47.5650819,126.3815 C47.1175306,126.404591 46.6724226,126.440207 46.2236496,126.446861 C46.0289912,126.451949 45.8314822,126.457037 45.63886,126.462125 C45.4450162,126.47504 45.2495433,126.488347 45.0520343,126.501654 C44.9062442,126.508308 44.7657481,126.48639 44.6187362,126.491087 C44.1948045,126.509482 43.7602847,126.462907 43.3599726,126.498914 C43.0138228,126.511047 42.6672658,126.483651 42.3207088,126.470735 L41.7872308,126.442947 C41.6422551,126.435902 41.5107182,126.44373 41.3628919,126.434336 L41.0904516,126.40694 C40.7573334,126.372498 40.4140342,126.317705 40.0849883,126.290308 C39.6968932,126.264477 39.3108344,126.210466 38.9243683,126.163892 C38.5077669,126.109098 38.0944233,126.053914 37.6786363,125.998338 C37.6411707,125.993641 37.6077774,125.985813 37.5743841,125.978768 L37.4326663,125.947067 L37.3886849,125.936891 C37.2656999,125.910277 37.1317196,125.890708 37.0075129,125.868399 L36.2178841,125.725153 L35.9584754,125.675448 L35.5479824,125.581908 C35.3582109,125.539638 35.1655887,125.497369 34.9774461,125.455883 C34.8141449,125.42105 34.6467712,125.397958 34.4798049,125.366648 C34.3951,125.343556 34.3075444,125.318899 34.2224323,125.294634 C34.1450576,125.268802 34.067683,125.24258 33.9854215,125.226142 C33.5700417,125.141603 33.1611777,124.992879 32.764938,124.930258 L31.7688411,124.642592 L31.2589828,124.487605 C31.1201156,124.448467 30.9930583,124.416765 30.8537839,124.366668 L30.597633,124.274302 C30.284062,124.160802 29.9664187,124.025775 29.6548838,123.920493 C29.2879651,123.795251 28.9324488,123.641047 28.5683807,123.507977 C28.1782495,123.356121 27.7938196,123.198786 27.4106114,123.036754 C27.3120605,122.996833 27.2367221,122.951824 27.1463159,122.907207 C27.0343262,122.851631 26.9101195,122.80036 26.794872,122.749089 C26.5537889,122.637545 26.3078189,122.535394 26.0732515,122.410935 C25.6228495,122.181977 25.1410904,122.007812 24.7057561,121.757719 C24.4634513,121.606646 24.2358069,121.475142 23.9723258,121.339333 C23.8758111,121.290019 23.7898845,121.239139 23.6958132,121.204697 C23.591561,121.167125 23.4873088,121.146773 23.3924231,121.124464 C23.2091673,121.081021 23.0975849,121.106852 23.0760014,121.185128 C23.0531963,121.266144 23.1236479,121.364772 23.2038732,121.48297 C23.2771755,121.590208 23.4384406,121.707231 23.6107011,121.805468 C23.6986638,121.855565 23.7886628,121.906836 23.8806979,121.960064 L24.3620497,122.232856 C24.5172063,122.3217 24.6772497,122.374928 24.8340352,122.461423 C25.2942108,122.704863 25.7653818,122.927167 26.2471408,123.141644 C26.420623,123.223834 26.585146,123.311112 26.7598498,123.386649 C26.9671324,123.476275 27.1544606,123.554552 27.3650011,123.634002 C27.3861773,123.642221 27.4073535,123.650049 27.4273081,123.660616 C27.4488915,123.671183 27.4668099,123.683708 27.4855427,123.696232 C27.6635044,123.816777 27.9567136,123.906795 28.1680686,123.99603 L28.9515889,124.307178 C29.5070575,124.522047 30.0710781,124.704822 30.6334697,124.892294 L30.9669952,125.009708 C31.2516525,125.103639 31.5391605,125.192874 31.8274829,125.278978 C31.9647211,125.320465 32.1210994,125.374867 32.2583376,125.407743 C32.390689,125.439053 32.4977918,125.457057 32.6342156,125.499326 C32.8476067,125.558425 33.0528532,125.615566 33.2666516,125.675056 C33.6881399,125.779947 34.1039269,125.895404 34.5266369,125.983465 C34.9493469,126.071917 35.3720569,126.161935 35.7968031,126.260563 C35.9372992,126.293831 36.0786097,126.326707 36.2219565,126.343536 L36.5738076,126.388545 C36.7151181,126.411636 36.8519491,126.446469 36.9908163,126.476214 C37.1524886,126.511439 37.3170115,126.540009 37.4815345,126.56858 C37.6558311,126.599891 37.830535,126.630419 38.0068677,126.65077 C38.0789483,126.660555 38.1400336,126.665643 38.1990827,126.669557 C38.3587188,126.691474 38.5269069,126.714174 38.6686247,126.733352 L39.5079362,126.84607 C40.1041283,126.896558 40.6958409,126.956048 41.2895896,126.997534 C41.408095,127.001448 41.5261931,127.009667 41.6438841,127.018669 C41.9444236,127.040978 42.2457775,127.05859 42.5475387,127.073071 C42.6912927,127.080116 42.8566301,127.09538 42.9979407,127.094206 C43.1339572,127.09264 43.2426889,127.074637 43.3864429,127.080507 C43.608386,127.086769 43.82137,127.092249 44.0445348,127.098902 C44.9156106,127.121602 45.7724331,127.053111 46.6463596,127.041369 C46.790928,127.03315 46.9359037,127.02454 47.0792505,127.008493 L47.4315088,126.967007 C47.5744483,126.954874 47.7157589,126.955265 47.8582911,126.950569 C48.0240358,126.945089 48.1910022,126.932956 48.3575613,126.920824 L48.8861524,126.859768 C49.0555622,126.840199 49.1610361,126.813976 49.3174144,126.785406 C49.44325,126.762314 49.6065513,126.758792 49.722206,126.725524 C49.7987662,126.703216 49.8606659,126.662512 49.9103486,126.632375 C50.0223383,126.565449 50.0691703,126.497349 50.0716521,126.431597 C50.0732426,126.390502 50.0227455,126.363496 49.980393,126.330229" id="Fill-12" fill="#3F425C" transform="translate(36.571652, 124.103480) rotate(-2.000000) translate(-36.571652, -124.103480) "></path>
                        <path d="M83.9270927,98.5774315 C84.1879673,98.20424 84.4519755,97.8030689 84.7625964,97.1859433 C84.9094852,96.8738338 85.0728256,96.509312 85.2616267,96.0710977 C85.3552438,95.8512024 85.4563033,95.6135735 85.566372,95.3550586 C85.6607726,95.0902384 85.7626155,94.8045321 85.8726842,94.4947871 C86.2639961,93.4548162 86.5703082,92.2721892 86.8640859,91.1203003 C87.229937,89.4635979 87.5519173,87.7931027 87.7136909,86.1021156 C87.8492203,85.0530809 87.8962247,84.0186271 87.9714318,82.9770799 C87.9878834,81.9335623 88.0341044,80.8790105 87.9557637,79.7893858 C87.9385287,79.4469324 87.9212938,79.1029026 87.9036671,78.7580847 L87.803391,77.7252072 L87.7050734,76.6915415 C87.6565022,76.349088 87.6075392,76.0070286 87.5593597,75.6657574 C87.2542226,73.4825673 86.7982797,71.3218396 86.1535357,69.2174649 C85.512317,67.1134844 84.7516287,65.0394538 83.7880379,63.0536966 C82.9513592,61.3319713 82.0379065,59.6137928 80.9916663,58.0296007 C80.4914609,57.21386 79.9105645,56.4521079 79.3504285,55.6722282 C79.0676185,55.2848499 78.7550391,54.9179636 78.4585195,54.5380728 C78.1576912,54.1609405 77.8639135,53.7771089 77.539583,53.4161337 C76.6143792,52.3190216 75.7126776,51.2794448 74.6742715,50.2733646 C73.1901068,48.8160654 71.5684541,47.4675317 69.9244743,46.2021484 C69.0799614,45.6003919 68.2562089,44.9797196 67.3889772,44.4512615 C66.9581033,44.1840768 66.5440727,43.895612 66.1065398,43.6556187 C65.6713572,43.4128669 65.2400916,43.1716914 64.8135264,42.9336685 C61.8549895,41.2880002 58.7135271,39.9631112 55.465913,38.9980151 C54.6304093,38.7548692 53.7960807,38.5058121 52.9453006,38.3205956 C52.5214774,38.2228644 52.1000044,38.1125226 51.6742226,38.0250374 L50.3913935,37.7850441 C49.6976865,37.6412058 49.0274818,37.5710599 48.3561019,37.4827865 C47.6862888,37.3842671 47.0066832,37.3310666 46.2847735,37.2684083 C45.3995235,37.1687067 44.5080062,37.1509732 43.6188392,37.1084128 C40.3504648,36.9941303 36.9520448,37.2715609 33.7855133,37.9052378 C30.0494449,38.632311 26.4136526,39.8976943 22.9897719,41.5756769 C21.1530739,42.5072765 19.3763066,43.545277 17.6810137,44.7054416 C16.0049142,45.8920093 14.4001048,47.1778847 12.9096728,48.5918353 C12.6382222,48.8440449 12.4079005,49.0852205 12.1638692,49.3200907 C11.8305295,49.6519041 11.4823051,49.9715011 11.1579745,50.3218361 C11.0561316,50.4321778 10.9597725,50.5366084 10.8540126,50.6508909 C10.0028408,51.544659 9.16498687,52.5814773 8.39920644,53.5639129 C6.7940053,55.6513421 5.40659134,57.9058603 4.24166499,60.2687499 C4.03523722,60.6506111 3.86367107,61.0494177 3.68857958,61.4466479 L3.16291342,62.6379446 L2.40731728,64.5716836 C2.17229515,65.2226999 1.97017612,65.8859326 1.75199724,66.5448304 C1.21888872,68.3859611 0.735918241,70.2771397 0.469951533,72.1628012 C0.199284382,73.7938886 0.0986165701,75.4533495 0.026934821,77.1226624 C0.0120500862,77.5557538 0.0128334933,77.9967266 0.00656623655,78.4388818 C0.00343260817,78.8806428 -0.0110604231,79.3235861 0.0167505288,79.75983 C0.0453448877,80.5645366 0.0453448877,81.3708194 0.147971217,82.1928654 C0.333246995,84.2728072 0.683429966,86.3641772 1.16013318,88.3924948 C1.62038485,90.4259355 2.26512889,92.3841073 3.01054074,94.1976526 C4.2757432,97.3530322 5.86214256,100.390977 7.80146683,103.18617 C8.31146484,103.895509 8.79678554,104.622977 9.34908754,105.300002 L10.1575637,106.331303 L11.0126525,107.322803 C11.4670286,107.869782 11.942165,108.349769 12.4149512,108.837243 C12.6527153,109.079601 12.8834286,109.330628 13.1317687,109.572198 C13.382459,109.811403 13.637458,110.054943 13.9002911,110.305576 C14.5313255,110.938071 15.2128896,111.515395 15.8842695,112.103752 C18.3688451,114.241624 21.178143,116.181668 24.0375789,117.685862 C24.8848336,118.119742 25.7258211,118.56702 26.6012786,118.943364 C27.0368529,119.135674 27.4645932,119.346111 27.9064348,119.524234 L29.2347015,120.051116 C29.6745846,120.235151 30.1250437,120.390417 30.5770696,120.540955 L31.9296219,121.001632 L33.3029346,121.395709 L33.9895909,121.592354 C34.2195209,121.653042 34.4521928,121.702696 34.6836896,121.758655 L36.1823473,122.114113 L37.6951064,122.398637 C38.1972704,122.501885 38.7049182,122.573213 39.2129577,122.640206 C39.7209972,122.705229 40.2262948,122.792714 40.7359011,122.838427 C42.7731512,123.057141 44.8205857,123.117828 46.8648865,123.06581 C47.3862439,123.040195 47.8613803,123.016156 48.3302494,122.9933 C48.5652716,122.983054 48.7979435,122.972808 49.0349241,122.962168 C49.270338,122.941282 49.5100605,122.919213 49.7576172,122.896751 C50.9824742,122.801778 52.2935059,122.598828 53.5148376,122.386814 C56.0926386,121.923379 58.6332278,121.234531 61.0868589,120.308843 C65.7641909,118.549286 70.0819391,115.87547 73.8681456,112.667283 C76.0131142,110.834428 77.8321855,108.934974 79.6062109,106.590212 C79.9207488,106.155939 80.2235357,105.73861 80.5192718,105.33074 C80.821667,104.927205 81.0653066,104.496872 81.3269646,104.084272 C81.911778,103.173165 82.3222833,102.269939 82.7453231,101.460109 C83.4868179,99.8471496 83.7022549,99.0783042 83.4715415,99.2150491 C83.3497217,99.2848008 83.1429022,99.5500151 82.882811,99.9295119 C82.7558991,100.121034 82.6117522,100.338564 82.4554625,100.574223 C82.3066151,100.813034 82.1381826,101.06485 81.9497732,101.317847 C81.2921029,102.249447 80.2913004,103.86083 79.1483094,105.363843 C78.5975742,106.153968 77.9465629,106.899169 77.3100447,107.684566 C76.1388511,108.982263 74.944547,110.27405 73.6174553,111.421604 C72.3636123,112.560883 71.1230872,113.539771 69.7356732,114.523389 C65.655689,117.303607 61.1185869,119.407982 56.2822232,120.654055 C55.8388147,120.760456 55.3993234,120.865675 54.9625739,120.970893 C54.5207323,121.054832 54.0816326,121.138376 53.642533,121.221527 L52.9848627,121.347238 L52.3213169,121.442998 C51.8794753,121.508415 51.4360669,121.574226 50.9895248,121.640825 C48.8727589,121.891065 46.9534115,122.005347 44.828028,122.012047 C44.6165081,122.009682 44.4002878,122.000224 44.1895512,121.990372 C43.9631466,121.975003 43.7571105,121.960817 43.5495077,121.94663 C41.5494693,121.807126 38.6872915,121.495411 36.5658251,121.030399 C33.9711808,120.479085 31.4243243,119.696052 28.9601173,118.706129 C23.7394925,116.608848 18.9419074,113.5512 14.84508,109.723129 C14.4443673,109.335751 14.0307283,108.960983 13.6441169,108.559024 L12.4987758,107.341718 C10.5966633,105.238526 8.88178521,102.951693 7.4011458,100.521022 C7.06467245,99.9330586 6.70313008,99.2997758 6.34237111,98.6688575 C6.00903139,98.0225702 5.67686679,97.3786473 5.37133802,96.7859545 C5.09636213,96.2070545 4.84919719,95.6872661 4.59850692,95.159202 C4.36505161,94.6232564 4.14413081,94.0715477 3.89304883,93.4425998 C3.17035579,91.4765465 2.58828432,89.5439897 2.12803265,87.4904511 C0.332463588,79.4764882 0.935295347,71.014459 4.09438445,63.3914211 C4.35055857,62.7608969 4.64786157,62.1453476 4.92087894,61.5207345 C5.20016357,60.8984859 5.53154477,60.3026405 5.82845606,59.6930024 C6.06622011,59.1862186 6.36665673,58.7180543 6.63144833,58.2293981 L7.04352046,57.503113 C7.19393462,57.2686368 7.34513219,57.0337665 7.49672147,56.7973199 C7.8649228,56.2322126 8.22411495,55.6663171 8.63579538,55.1386471 C9.03807492,54.605066 9.42116099,54.0588744 9.85947726,53.5540609 C10.1070339,53.2533797 10.355374,52.9519103 10.6044974,52.6496527 C10.8500955,52.3454248 11.1270299,52.0664178 11.3863377,51.7724359 L12.1795374,50.9023125 L13.0134742,50.0704146 C13.5904535,49.4662935 14.2301054,48.930348 14.8446883,48.3664228 C15.1474751,48.0791402 15.485907,47.8336299 15.8047537,47.565263 C16.1302593,47.3051718 16.4463641,47.03247 16.7797038,46.7826248 C17.330439,46.3727841 17.7899073,46.0315128 18.2356659,45.7000935 C18.8686588,45.2886765 19.510661,44.8488858 20.1534465,44.4504733 C20.8083748,44.0725529 21.4284415,43.6741404 22.0246143,43.3659717 C24.354467,42.099012 26.8065312,41.0547063 29.3310606,40.2397537 C34.6825145,38.5184226 40.3344049,37.8989325 45.9079547,38.3162608 C46.4614318,38.3667027 47.0168675,38.4049282 47.568386,38.4715273 C48.1187295,38.5495547 48.669073,38.6279762 49.2182414,38.7060035 C52.0099126,39.1544639 54.7678972,39.86538 57.4373569,40.8261413 C58.7064764,41.2852417 60.1444201,41.8889687 61.3532173,42.4446181 C61.9435145,42.6897344 62.4495955,42.9620421 62.9740866,43.2166162 C63.2349611,43.3470559 63.4977942,43.4786779 63.7708116,43.6150287 C64.0418704,43.7553204 64.3125376,43.920833 64.6059235,44.08871 C66.4281284,45.1109475 68.0768087,46.2683535 69.7521247,47.5294019 C76.255187,52.5093611 81.331665,59.223656 84.2012852,66.9660994 C84.4237728,67.6104163 84.6462604,68.2567037 84.8683563,68.9022028 C85.063033,69.5567658 85.2577097,70.2105406 85.4516029,70.8615569 C85.5890909,71.4038077 85.7261871,71.9429059 85.8632833,72.4823982 C86.0070385,73.0207083 86.093605,73.572417 86.2087659,74.1233375 C86.3525211,74.7845998 86.426553,75.4525614 86.5182117,76.1161881 C86.6212297,76.7786327 86.6607918,77.4465943 86.7195473,78.1141618 C86.854685,79.6711625 86.8738785,81.251808 86.8492012,82.8261481 C86.7739941,84.4974314 86.652566,86.1695029 86.3760233,87.8199 C86.3145258,88.2163421 86.2581205,88.5765291 86.2048488,88.9170122 C86.1386509,89.2547367 86.075195,89.5731514 86.0129141,89.8880195 C85.9506332,90.2032816 85.8891358,90.5157852 85.8248964,90.8412933 C85.7622238,91.1668014 85.6646896,91.4982207 85.5757729,91.8631366 C85.4273173,92.4455834 85.2573179,93.1096042 85.0336552,93.7468278 C84.8197851,94.3872039 84.6352927,95.027186 84.4359156,95.5540678 C84.1844419,96.2535556 84.0391199,96.8805332 83.8659869,97.3573671 C83.4930852,98.4434451 83.3787077,98.9876663 83.4409886,99.1500263 C83.4793755,99.2509102 83.7155728,98.8749601 83.9270927,98.5774315" id="Fill-3" stroke="#FFFFFF" stroke-width="2" fill="#FFFFFF"></path>
                        <path d="M45.9131044,43.5998704 C45.8014016,43.3887662 45.663487,43.2909476 45.2832137,43.1910389 C45.1227166,43.148818 44.9436696,43.1371132 44.7694617,43.1258265 L44.0226259,43.0785893 C43.8673712,43.0685566 43.7161491,43.0426389 43.5633139,43.0183932 C43.4104787,43.0033442 43.2560305,42.9945656 43.0955334,43.0050163 C42.8939039,43.0183932 42.688645,43.0250817 42.486209,43.0246637 L41.5143546,43.0079425 L41.0280242,43 L40.5429036,43.0359504 C40.2614288,43.0572699 39.9763246,43.0781713 39.6976726,43.0990727 C39.4170043,43.1237363 39.1391588,43.1889487 38.8544579,43.2144485 C38.6435535,43.2294975 38.4362783,43.1985634 38.2277934,43.2533251 C37.6285504,43.3958727 36.9918044,43.4046513 36.4349036,43.578133 C35.940508,43.6579764 35.45942,43.8118107 34.9694602,43.9163178 L34.2161723,44.0885454 C34.01172,44.1366186 33.8354958,44.2089375 33.6253978,44.2536665 L33.2447213,44.3606817 C32.7797636,44.4940327 32.2857713,44.5935234 31.8296853,44.7394153 C31.5627278,44.8297093 31.2881084,44.899102 31.0255867,45.003191 L30.2372153,45.3171302 C29.6722494,45.5457916 29.0883303,45.7217815 28.5479631,46.0047866 C28.4991688,46.0302863 28.452794,46.0474254 28.4064192,46.0658187 L28.2104353,46.1414818 C28.1894658,46.1490063 28.1697061,46.1561128 28.1479301,46.1640553 C27.9781581,46.2301038 27.8027404,46.3208159 27.6349846,46.396897 L26.5703807,46.8780474 C26.4530324,46.9294649 26.3461687,47.0026198 26.2340627,47.0665781 L25.6908727,47.3533455 C25.4408521,47.4879505 25.1876055,47.6246458 24.9400044,47.7579968 C24.7262771,47.8767168 24.5246476,48.0192644 24.3129366,48.146763 C24.1996208,48.2077951 24.0867082,48.2776058 23.9770218,48.3457444 C23.8701581,48.398834 23.7632945,48.4523416 23.6648993,48.5267506 C23.1688906,48.9021399 22.5849715,49.1680058 22.1413866,49.555936 C21.7445797,49.8723833 21.3417239,50.1808881 20.935642,50.4839585 L20.3073644,50.9475518 C20.133963,51.069616 20.0097592,51.2221963 19.8420035,51.3597276 L19.533107,51.6143067 C19.1552533,51.9257377 18.7370737,52.2179394 18.3725275,52.5368949 C17.9446696,52.9143744 17.5494758,53.3336566 17.1442004,53.7383079 C16.703035,54.1713851 16.2481588,54.5869051 15.8723214,55.0818505 C15.7735229,55.2051688 15.6719016,55.2871023 15.5654412,55.3928634 C15.4347853,55.5241243 15.308162,55.6796308 15.1831517,55.8188342 C14.9226463,56.1156342 14.6431878,56.3957131 14.4080878,56.7163407 C13.9435333,57.3116128 13.570922,57.9808759 13.0769296,58.5447959 C12.8172308,58.8821447 12.5914057,59.2061165 12.3627579,59.5877762 C12.2792832,59.7269796 12.1913728,59.8482078 12.1369328,59.9895013 C12.0768472,60.1458439 12.0514419,60.3080388 12.0211974,60.4526766 C11.9619184,60.7331735 12.0304724,60.9175239 12.1849206,60.9773019 C12.3462242,61.0395881 12.526481,60.9626709 12.7402083,60.8794833 C12.9345792,60.8038202 13.1325794,60.5960602 13.2914635,60.3632185 C13.3737283,60.2444985 13.4572029,60.1228523 13.5430971,59.9982799 C13.6963355,59.7863396 13.838686,59.5647847 13.9858755,59.3478281 C14.126613,59.1367238 14.2532363,58.9364883 14.4145399,58.7395971 C14.9016768,58.1844556 15.2819501,57.5419463 15.7711034,56.9776083 C15.9598286,56.780717 16.1537962,56.602219 16.3296171,56.3978032 C16.5368923,56.1561829 16.7203752,55.935046 16.9119232,55.6787947 C16.9312796,55.652877 16.9510393,55.6269592 16.9732186,55.6052218 C16.9978174,55.5818122 17.0240292,55.564673 17.0498378,55.5466978 C17.2905835,55.3652736 17.591818,55.060113 17.8208691,54.8322877 C18.107183,54.5601513 18.3914807,54.2859248 18.6693262,54.0045919 C18.9556401,53.6965051 19.2798604,53.4348195 19.5944024,53.1626831 C19.9101543,52.8913828 20.2238898,52.6188284 20.5315765,52.3379135 C20.655377,52.2279721 20.7807905,52.1197028 20.9154791,52.0252284 C21.2618786,51.7877884 21.6022292,51.5411518 21.9393538,51.2899169 C22.0994476,51.1699428 22.293012,51.0441163 22.4418146,50.9124374 C22.5849715,50.7866109 22.6865928,50.6666368 22.8531388,50.5566954 C23.1188865,50.3982627 23.3777788,50.2527889 23.6382842,50.0843236 C24.151633,49.7649501 24.6383666,49.4058638 25.1617969,49.111154 C25.6856304,48.8168621 26.2118834,48.5250785 26.749831,48.2458356 L27.2833427,47.969101 C27.4281127,47.8913477 27.5668339,47.8039799 27.7156364,47.732079 C27.8942802,47.6451291 28.0809891,47.583679 28.2640688,47.5117782 C28.4781993,47.4285905 28.687894,47.33119 28.897992,47.2337894 C29.1197845,47.1280283 29.3427867,47.0247753 29.5742574,46.9436779 C29.66862,46.9073094 29.7452392,46.871777 29.8186324,46.8349905 C30.0287304,46.7635077 30.246087,46.6715415 30.4315861,46.6038209 C30.7981486,46.4700519 31.1639046,46.3333567 31.5264345,46.1870469 C32.3107733,45.9274514 33.1003545,45.7042243 33.8786445,45.4350142 C34.0359155,45.3911212 34.1968159,45.3614412 34.3569097,45.3305071 C34.7646046,45.2523358 35.1706865,45.1628778 35.5755586,45.0679854 C35.7687197,45.0224203 35.9937382,44.9852158 36.1804472,44.9237657 C36.3598975,44.8652417 36.5030544,44.8196767 36.6986351,44.7925048 C37.0022891,44.7544643 37.2954585,44.7260384 37.598306,44.6775471 C38.1902903,44.5809826 38.7758224,44.4710412 39.3702263,44.4338367 C39.9630171,44.3811651 40.5566144,44.3218051 41.1566639,44.2967234 C41.3554706,44.3000676 41.5550838,44.3034119 41.7526807,44.290035 C41.9151941,44.2791662 42.0756912,44.2570107 42.2398177,44.2528305 C42.4366081,44.2478141 42.630979,44.2691336 42.8261563,44.2795843 C43.0535944,44.2925431 43.2834521,44.290453 43.5129065,44.2887809 L44.2415956,44.3401983 C44.4750826,44.3565014 44.6246917,44.3372722 44.8444679,44.3305837 C45.0202888,44.3247313 45.2412748,44.3719685 45.408224,44.3410344 C45.518717,44.3209691 45.6179187,44.2561747 45.696151,44.2101916 C45.8731817,44.1069386 45.9651248,43.9806941 45.9961757,43.8435809 C46.0155322,43.7587211 45.9578661,43.6843121 45.9131044,43.5998704" id="Fill-14" stroke="#FFFFFF" stroke-width="2" fill="#FFFFFF"></path>
                        <path d="M79.6552335,90.9972953 C79.8691266,91.0109675 79.977764,90.9757513 80.1147232,90.8237001 C80.1730576,90.7594823 80.2039157,90.677035 80.2335057,90.5962449 L80.3611652,90.2507117 C80.4156952,90.1081896 80.5272916,89.9909404 80.5560361,89.8339175 C80.5754809,89.7361408 80.6016892,89.638364 80.6346608,89.544316 C80.7365348,89.2422852 80.8865981,88.9547552 80.9609957,88.6436097 C81.000308,88.5106167 81.0396204,88.3751379 81.0785101,88.2433878 C81.1144407,88.1091519 81.1102136,87.9649726 81.1457215,87.8290795 C81.1731979,87.7288169 81.249709,87.6447123 81.2547816,87.5378208 C81.2742264,87.2337184 81.4314759,86.9499172 81.4099175,86.6557583 L81.5202457,85.925747 L81.5887253,85.5528695 C81.6060566,85.451364 81.5916843,85.3556588 81.6136654,85.252496 L81.6466371,85.0614999 C81.6859494,84.8274156 81.7679559,84.5896027 81.7924732,84.3563471 C81.8258676,84.082075 81.8524986,83.8065599 81.8609528,83.5293876 C81.8808204,83.2319143 81.931546,82.937341 81.9125239,82.639039 C81.910833,82.612109 81.9159056,82.5884934 81.9192873,82.5640492 C81.9268961,82.530076 81.9340823,82.496517 81.9378867,82.4621294 L81.9450728,82.4298133 C81.9602905,82.3415657 81.955218,82.2450318 81.9602905,82.1551269 L81.994953,81.585453 C81.9991802,81.5228924 81.9907259,81.4599175 81.9869215,81.397357 C81.9907259,81.2975087 81.9970666,81.1976604 81.9953757,81.0973977 C81.9970666,80.9590188 81.9983347,80.8189825 82.0000256,80.6818465 C81.997912,80.5625257 81.9691675,80.4436192 81.9585997,80.3234698 C81.9624041,80.2609092 81.9632495,80.1962771 81.9615587,80.1333023 C81.9712811,80.0748848 81.9814262,80.0164673 81.9691675,79.9572212 C81.904915,79.6593335 81.9810035,79.3444592 81.8795522,79.0672869 C81.8372809,78.8245022 81.8060001,78.5804746 81.78106,78.3360327 L81.7468202,77.9585978 C81.7383659,77.8562637 81.6922901,77.7684303 81.6817223,77.6640246 L81.6618548,77.4713712 C81.6369147,77.2352155 81.6525551,76.9845589 81.6136654,76.7529606 C81.5671669,76.48076 81.5122142,76.2089737 81.4496526,75.939259 C81.3930089,75.646343 81.3558101,75.3505269 81.252668,75.0687972 C81.2281507,74.9962933 81.2357595,74.9308325 81.2285734,74.8583286 C81.2192737,74.768838 81.1884156,74.6768615 81.1693935,74.5890282 C81.1275448,74.403418 81.0937277,74.2153221 81.0430021,74.0317835 C80.9521187,73.6800357 80.7399165,73.3630898 80.6972224,73.00057 C80.6646735,72.7971446 80.6156387,72.613606 80.5315187,72.4172239 C80.5006606,72.3455486 80.4850202,72.2755304 80.4313356,72.2183559 C80.371733,72.1557953 80.2829632,72.11105 80.2098337,72.0663047 C80.0673792,71.9801286 79.8949121,71.9809572 79.7414671,72.0513896 C79.5821041,72.1251365 79.5000977,72.2357568 79.397801,72.365021 C79.304804,72.4826846 79.2963497,72.6272782 79.3331258,72.7561281 C79.3521479,72.8220031 79.374129,72.8887068 79.3893467,72.9591392 C79.4168231,73.0809458 79.458249,73.1986094 79.4933342,73.3183445 C79.5271513,73.4335222 79.5897129,73.5321276 79.6112713,73.652277 C79.6653787,74.0019533 79.8230508,74.3217993 79.9088617,74.6673324 C79.9283065,74.7965966 79.9291519,74.9250322 79.962969,75.0489104 C80.0022814,75.1955756 80.0428619,75.326497 80.1041553,75.4681904 C80.1096506,75.4822769 80.1159913,75.4963634 80.1168367,75.5121071 C80.1181049,75.5282652 80.1126096,75.5444232 80.1088052,75.5601669 C80.0732972,75.713461 80.1345907,75.9094288 80.1599535,76.06148 C80.188698,76.2479187 80.2199788,76.4339432 80.2609821,76.6183104 C80.3501746,77.0085888 80.3772283,77.4059105 80.4655754,77.7953603 C80.4816385,77.872836 80.4888247,77.9519689 80.4909382,78.0311018 C80.4938972,78.2328699 80.5091149,78.4338095 80.5289824,78.6343347 C80.5391276,78.7300399 80.5349004,78.8410746 80.5619541,78.9334653 C80.5873169,79.0225416 80.6278974,79.0917311 80.6295883,79.1878506 C80.627052,79.3365873 80.6164841,79.4803523 80.6257838,79.6286747 C80.6676325,80.2082921 80.708213,80.7812805 80.6798912,81.3650409 C80.6760868,81.4615748 80.6718596,81.5585229 80.678623,81.6546424 C80.6858092,81.7341896 80.7031404,81.8124939 80.7031404,81.8920411 C80.7031404,81.9877463 80.6760868,82.08138 80.6600236,82.1758423 C80.6414242,82.285634 80.6367744,82.3974973 80.6325473,82.5085319 C80.6283201,82.6270241 80.6236703,82.7455163 80.6114116,82.8631799 C80.6071844,82.9116539 80.6097207,82.9526704 80.6143706,82.992444 C80.5970393,83.098507 80.5953485,83.2124418 80.5839352,83.3069041 C80.5619541,83.4945857 80.5425093,83.6818531 80.5327869,83.8703634 C80.4960108,84.2680994 80.4296448,84.6596208 80.4068182,85.0577711 C80.3987867,85.1364897 80.3784964,85.213551 80.3586289,85.2901981 C80.3079033,85.4853373 80.2681682,85.6829624 80.2343511,85.881416 C80.2178653,85.9758783 80.1844709,86.0823556 80.185739,86.1784751 C80.1861618,86.2704516 80.1996886,86.3466843 80.1730576,86.4394894 C80.1307863,86.5820114 80.0821742,86.7174903 80.0508934,86.8629125 C79.936338,87.4325864 79.8027606,87.9910741 79.6218392,88.5462472 C79.5871767,88.6369808 79.5520914,88.7273 79.5339147,88.8221766 C79.5186971,88.9000665 79.5144699,88.9808567 79.4920661,89.0575037 C79.4658579,89.1494802 79.4147095,89.2323418 79.3732836,89.318518 C79.3250943,89.4191949 79.290009,89.5252578 79.2553465,89.6313207 L79.1281097,89.9627674 C79.0871065,90.0688303 79.0896428,90.146306 79.0723116,90.2531976 C79.0587847,90.3389594 78.9898824,90.4292786 79.0012957,90.5191835 C79.0089045,90.5784296 79.0600529,90.6459619 79.0951381,90.6981647 C79.1746082,90.8162426 79.2853592,90.9003472 79.4130187,90.9591789 C79.4920661,90.9960524 79.5694227,90.9919093 79.6552335,90.9972953" id="Fill-16" stroke="#FFFFFF" stroke-width="2" fill="#FFFFFF"></path>
                        <path d="M78.6047346,68.6638422 C78.810728,68.5673929 78.8977876,68.5224121 78.9653421,68.4744037 C78.9938862,68.4545083 78.9900803,68.4475882 78.9857987,68.4415331 L78.9667693,68.4147176 C78.9591575,68.4034724 79.0195759,68.3628166 78.9934105,68.3593565 C78.9772355,68.357194 78.9686722,68.3515714 78.9667693,68.3429212 C78.9610605,68.3148082 78.9867502,68.2732874 78.9705752,68.249932 C78.9629634,68.2399843 78.9677208,68.224414 78.9605847,68.2144664 C78.9539244,68.2045187 78.9058752,68.2127363 78.8982634,68.2027886 C78.8925546,68.195436 78.9425068,68.1634304 78.9215744,68.1629979 C78.8606803,68.1617004 78.9401281,68.0959592 78.8426023,68.112827 C78.8135825,68.1024468 78.7959802,68.0868765 78.7850383,68.0687112 L78.7721935,68.0380031 C78.7674361,68.0302179 78.7327074,68.0375706 78.7327074,68.0271904 L78.7317559,68.009025 C78.7312802,67.9865346 78.7721935,67.9437163 78.7564942,67.9285786 C78.7384162,67.9099807 78.7322317,67.8866253 78.7070177,67.8714875 C78.6927456,67.8494296 78.697503,67.818289 78.6546868,67.8096389 C78.6513566,67.8087738 78.654211,67.8053138 78.656114,67.8018537 C78.6608713,67.7966636 78.665153,67.791041 78.6665802,67.7871484 C78.6680074,67.7854184 78.6713375,67.7819583 78.6713375,67.7819583 C78.6789493,67.7694156 78.6665802,67.7659555 78.6646772,67.7586029 L78.654211,67.7079995 C78.6537353,67.7023769 78.6456478,67.7002143 78.6385118,67.6971868 C78.6394632,67.6872391 78.6418419,67.6764264 78.6366088,67.6690737 C78.6299485,67.6591261 78.6342302,67.6435558 78.6275699,67.6331756 C78.6213853,67.6245254 78.5890353,67.628418 78.5742875,67.6240929 C78.5780934,67.6158753 78.5799963,67.6089551 78.5790448,67.6033325 C78.589511,67.5925198 78.5999772,67.5821396 78.5880838,67.5817071 C78.5276654,67.5817071 78.6061618,67.5138034 78.5095874,67.5328337 C78.4810433,67.5224535 78.4634411,67.5073157 78.4524992,67.4887179 L78.4391786,67.4584423 C78.434897,67.4506572 78.4001683,67.4584423 78.3996925,67.4480621 L78.3992168,67.4298968 C78.3982653,67.4069739 78.4382271,67.3632906 78.4234793,67.3481528 C78.4054014,67.3299875 78.3982653,67.3061995 78.3740028,67.2914942 C78.359255,67.2694363 78.3640124,67.2382958 78.3221476,67.2300781 C78.3116815,67.2279156 78.3316624,67.2119128 78.3373712,67.2015326 C78.3454587,67.1889898 78.3335653,67.1859623 78.3311866,67.1777446 L78.3207204,67.1271412 C78.3159631,67.0942706 78.1841843,67.1249787 78.2284277,67.0674551 C78.2541175,67.0345845 78.2579233,67.0142566 78.2322336,67.006039 C78.2222432,67.0034439 78.2270005,66.9943612 78.1917961,67.0051739 C78.1527858,67.0172842 78.0809497,67.0471272 78.0238615,67.0696176 C77.9134908,67.1137335 77.7503135,67.1915849 77.5852333,67.2772215 C77.4144442,67.3663181 77.3064523,67.4290318 77.1741978,67.5051532 C77.0543124,67.5743545 77.0072146,67.6119827 77.0062631,67.6253904 C77.0062631,67.6323106 77.0086418,67.6379332 77.0038845,67.6470158 C76.995797,67.6634511 77.002933,67.6721013 77.002933,67.6842115 C77.002933,67.6958892 77.044322,67.6859416 77.0357587,67.7019444 C77.010069,67.7490877 77.076672,67.7499527 77.0937985,67.7763357 C77.0880896,67.7914735 77.0652543,67.8152615 77.0742933,67.8234791 C77.085711,67.8325618 77.099983,67.8386169 77.1323331,67.8373194 C77.1356632,67.8368869 77.1389934,67.8368869 77.1370904,67.8394819 C77.1347117,67.842077 77.1271,67.847267 77.1199639,67.8524571 C77.0538367,67.8987355 77.0923713,67.8996005 77.0933227,67.9143058 C77.0942742,67.9320386 77.0985558,67.9484739 77.1118764,67.9601516 C77.141372,67.9848046 77.143275,68.0224328 77.1865669,68.0397331 C77.1951301,68.0427607 77.1918,68.0522759 77.1889456,68.0613585 C77.1813338,68.084714 77.1851397,68.1024468 77.1937029,68.1175846 C77.1984603,68.1245047 77.1879941,68.1405075 77.2094022,68.13921 C77.2298588,68.1379124 77.2660147,68.1275322 77.2631603,68.1383449 C77.2593544,68.1543477 77.2469853,68.1742431 77.2541214,68.1850558 C77.2793353,68.2291716 77.3402295,68.2555546 77.3340449,68.3148082 C77.3330935,68.3247559 77.3316662,68.3342711 77.3473655,68.3360011 C77.3611618,68.3377311 77.3854244,68.3334061 77.3911332,68.3385962 C77.3982692,68.3442188 77.3792398,68.3623841 77.3702008,68.3757918 C77.3602104,68.3913621 77.364492,68.4000123 77.3682979,68.4086625 L77.3825699,68.4367755 C77.3839972,68.4402355 77.3916089,68.4406681 77.4011236,68.439803 C77.396842,68.4523458 77.4092111,68.4571034 77.4101626,68.466186 C77.4111141,68.4839189 77.41492,68.5003542 77.4287163,68.5115994 C77.4577362,68.5366848 77.4596391,68.5738805 77.5038825,68.5916133 C77.51197,68.5955059 77.5086399,68.6041561 77.5057855,68.6132387 C77.4981737,68.6361617 77.5015038,68.6538945 77.5105428,68.6690323 C77.5148244,68.6763849 77.5043582,68.6915227 77.5262421,68.6906577 C77.5466987,68.6897927 77.5833303,68.68071 77.5804759,68.6906577 C77.5761943,68.7066605 77.5638252,68.7261233 77.571437,68.736936 C77.5961752,68.7810519 77.6575451,68.8082999 77.6508848,68.8666884 C77.6499333,68.8766361 77.6489819,68.8861513 77.6646811,68.8883138 C77.6780017,68.8896114 77.70274,68.8861513 77.7084488,68.8913414 C77.7160606,68.896964 77.6960797,68.9146968 77.6870407,68.9276721 C77.6770502,68.9428099 77.6813319,68.95146 77.6851378,68.9605427 L77.6989341,68.9882232 C77.7032157,68.9968734 77.7365172,68.9890882 77.7631584,68.9873582 C77.7845665,68.9860607 77.7564981,69.0089836 77.8021687,68.9960083 C77.8330915,68.9877907 77.9082577,68.9588127 77.9615401,68.9389173 C78.0833284,68.8930714 78.2203402,68.8364129 78.3630609,68.7745642 C78.451072,68.7347735 78.5224323,68.7019029 78.6047346,68.6638422" id="Fill-18" stroke="#FFFFFF" stroke-width="2" fill="#FFFFFF"></path>
                        <path d="M41.8038223,15.6661405 C41.5349034,15.8109902 41.4148075,16.0296691 41.0373634,16.5581096 C40.898116,16.790832 40.7217627,17.0299744 40.5617679,17.2715243 C40.4544397,17.4488749 40.3159903,17.6041569 40.1839247,17.7638527 C40.0506622,17.9223447 39.9257785,18.0884604 39.7709706,18.2284951 C39.41188,18.6028573 38.9945369,18.8777106 38.5747999,19.2023183 C38.303487,19.3985274 38.0273862,19.600354 37.7237552,19.7496173 C36.775357,20.2648167 35.7339943,20.580597 34.677869,20.725848 L34.332344,20.7735962 L33.9840261,20.7860348 C33.7518142,20.7908497 33.5200013,20.8105108 33.2929762,20.7852323 C32.8329413,20.7743987 32.3725073,20.7346754 31.9136694,20.6411851 C31.582508,20.5388675 31.2720942,20.42692 30.9485136,20.3053425 C29.9993175,19.9771236 29.2212879,19.3078459 28.7728236,18.6084747 C28.4181219,17.9789203 28.338324,17.1495456 28.6463439,16.5500846 C28.7987579,16.2379155 29.0501214,16.0067981 29.3605352,15.8438923 C29.6142926,15.7187037 29.8744338,15.6240097 30.1856456,15.6095649 C30.3759636,15.59833 30.5686756,15.617991 30.7558017,15.6545044 C31.4548314,15.782903 32.005038,16.2972999 32.3553508,16.9216381 C32.7738908,17.6567201 32.8999715,18.5747701 32.7551383,19.4446706 C32.5935475,20.4016415 32.1283257,21.3060491 31.5793161,22.165116 C31.5298414,22.2433589 31.4799677,22.3095645 31.4280991,22.3769737 C31.355084,22.4692602 31.2816699,22.5615467 31.2074579,22.6546357 C31.1839175,22.6839266 31.1611751,22.7112113 31.1368367,22.7409035 C30.9417308,22.9788422 30.7362512,23.2384481 30.5283776,23.4671581 C30.0882922,23.9494554 29.6099037,24.3916281 29.0952072,24.7780276 C28.9236417,24.90121 28.757263,25.0328186 28.5801117,25.1475748 C28.2980261,25.3309441 28.0003798,25.4826149 27.7031326,25.6334833 C27.2881835,25.8341061 26.847699,25.9837707 26.4108055,26.093712 C26.0337604,26.1908135 25.6563162,26.2738713 25.2605186,26.2927299 C25.055837,26.301156 24.8443725,26.2831 24.6392919,26.2726676 C24.4521658,26.2441792 24.2654387,26.2156907 24.0735247,26.186801 C23.0888185,26.0620136 22.1930869,25.5488205 21.4968502,24.9922928 C20.9139264,24.4670622 20.5025682,23.7809322 20.3541441,23.0153555 C20.2727502,22.6245423 20.2675634,22.2208892 20.321427,21.8352921 C20.3673108,21.5227218 20.4203764,21.2378374 20.5632146,20.9525517 C20.6553812,20.7816211 20.7547296,20.6143017 20.8832043,20.4722607 C21.3161079,19.9446227 22.0721931,19.7038753 22.7496774,19.7371787 C23.147071,19.7560373 23.5420706,19.8651761 23.8353279,20.0878674 C24.1321762,20.2989226 24.3440396,20.6074805 24.4517668,20.9862564 C24.5654788,21.3903107 24.5471253,21.8517432 24.4330143,22.2895022 C24.3216962,22.7272612 24.1070398,23.1381367 23.8305401,23.5377774 C23.6892978,23.7404064 23.5392777,23.8844536 23.3693081,24.0553842 C23.1590406,24.2660382 22.9264297,24.4967544 22.6910259,24.7021922 C22.19189,25.1359387 21.6584409,25.5568454 21.121401,25.9552823 C20.0987908,26.7156428 19.0749836,27.5044917 17.9390604,28.0818842 C17.2930963,28.4032819 16.6970059,28.6994012 16.0259055,29.0328363 C15.7813249,29.1556175 15.547517,29.2507127 15.3304667,29.3775063 C15.0914719,29.5195473 14.8804065,29.6692119 14.6821087,29.8072404 C14.2942908,30.0620314 14.1530485,30.2746915 14.2607757,30.3950652 C14.3720938,30.5190501 14.6769218,30.5114265 15.0352144,30.5013953 C15.3603909,30.4905617 15.8551379,30.3360821 16.3235517,30.1258294 C16.5609505,30.0162894 16.805531,29.9035393 17.0552985,29.7887831 C17.4890001,29.590969 17.9107321,29.3646664 18.3324641,29.1387652 C18.7390344,28.9188825 19.0933371,28.6717152 19.4959176,28.4418015 C20.6613661,27.7636964 21.7386378,26.9459578 22.7887783,26.0784647 C23.1793891,25.7731168 23.566808,25.4765963 23.9310854,25.1138702 C24.3580042,24.6857411 24.7242767,24.2483834 25.0267107,23.6866395 L25.1180793,23.5181163 C25.1515945,23.4583307 25.1879025,23.408175 25.2214176,23.3532044 C25.3862003,23.0887835 25.5254477,22.7304711 25.6040486,22.3484853 C25.6834475,21.9664995 25.6942202,21.5608401 25.6603061,21.2105527 C25.6172153,20.7832261 25.4959224,20.3454671 25.2645085,19.9566601 C25.0326956,19.5658468 24.6955494,19.2255905 24.3081305,19.0004917 C23.4810252,18.5214044 22.5266422,18.4628226 21.6676177,18.6991563 C21.237108,18.8223387 20.8233558,19.0281777 20.4662602,19.3230932 C20.1031797,19.6240274 19.8322658,19.9871547 19.6287811,20.3843879 C19.4691853,20.699767 19.3411096,21.0307946 19.2664986,21.3690447 C19.0654079,22.2325253 19.1424128,23.133723 19.4392611,23.9530666 C19.5769125,24.3422748 19.7987507,24.7856513 20.053306,25.0990241 C20.2942957,25.405977 20.5237147,25.6122173 20.814578,25.8922867 C21.273416,26.3164034 21.7781378,26.652246 22.344304,26.9018207 C23.4534949,27.3849205 24.6656252,27.5398013 25.8450383,27.3973591 C27.0316332,27.2476945 28.1360363,26.7991019 29.1339092,26.1827886 C29.4654695,25.9813633 29.7798732,25.7514495 30.0731306,25.503881 C30.3129233,25.2972395 30.5323675,25.0765544 30.7589936,24.8574742 C31.0271146,24.5902446 31.3016194,24.3362562 31.5537808,24.0581929 C31.852624,23.7375977 32.1211439,23.3861065 32.3776942,23.0277942 C32.6490071,22.6462096 32.9007695,22.2437602 33.1265976,21.822051 C33.2179662,21.6475092 33.2857944,21.4966408 33.3468398,21.3477787 C33.5367588,20.954558 33.6863799,20.5071691 33.7869253,20.1227758 C33.989612,19.3688352 34.0474655,18.5314356 33.8802888,17.7373705 C33.7075264,16.9011746 33.3296833,16.0750098 32.6817242,15.4502704 C32.3661235,15.142515 31.967134,14.8784953 31.5414121,14.7216083 C31.1172862,14.5615113 30.667625,14.4896883 30.2195597,14.5097506 C29.863661,14.5221892 29.5053684,14.5803698 29.1602425,14.704756 C28.719359,14.8552231 28.301218,15.1324838 27.9828243,15.508451 C27.6596428,15.8804057 27.4625419,16.3414369 27.3703753,16.8044744 C27.2857896,17.2454433 27.2857896,17.762649 27.3959107,18.1763332 C27.5008449,18.5727639 27.6361024,18.8676794 27.84238,19.2436466 C28.1663595,19.8190328 28.5972682,20.2772553 29.1071769,20.6468026 C30.1090396,21.3634273 31.2437659,21.7205359 32.3984417,21.889059 C33.5551124,22.0479523 34.7313336,21.9689069 35.8672568,21.6996711 C36.2490898,21.6302556 36.6105743,21.4829985 36.9740538,21.3578098 C37.2653162,21.2338249 37.540619,21.0833578 37.8306844,20.9553605 C38.1610477,20.7659725 38.5125575,20.6231291 38.8325471,20.4176913 C39.0184763,20.2969164 39.2048044,20.1753389 39.3923295,20.0537615 L39.9158038,19.6316511 C40.1057228,19.4880052 40.2697075,19.3134633 40.440874,19.1469464 C40.6120405,18.979627 40.784404,18.814715 40.9316312,18.6249258 C41.0792573,18.4483777 41.1941663,18.2999169 41.3042874,18.153061 C41.3996459,17.9953714 41.4938074,17.8408919 41.6055245,17.6567201 C41.7990344,17.3742432 42.0116959,16.9866399 42.1325897,16.6873107 C42.2167765,16.4915028 42.2052058,16.28767 42.2211654,16.1416166 C42.2435088,15.8033665 42.1832614,15.6300284 42.0763322,15.5606129 C42.0097009,15.5176796 41.9067616,15.6059537 41.8038223,15.6661405" id="Fill-20" stroke="#FFFFFF" fill="#FFFFFF" transform="translate(28.225792, 22.506461) rotate(-78.000000) translate(-28.225792, -22.506461) "></path>
                        <path d="M28.4778294,5.54265448 C27.9506185,1.51768326 23.3183661,-0.174008837 20.1767127,2.38457026 C16.8091118,5.12636744 18.8773506,11.9896005 23.6438616,11.0903428 C26.4187596,10.5665851 28.8701268,8.53564819 28.4778294,5.54265448" id="Fill-22" fill="#DC3A14" transform="translate(23.519286, 6.170953) rotate(-78.000000) translate(-23.519286, -6.170953) "></path>
                        <path d="M46.9434499,66.6086927 C49.8138165,61.942026 53.1670657,61.6086927 57.0031976,65.6086927" id="Path-36" stroke="#000000" stroke-width="1.95348837" transform="translate(51.973324, 64.724077) rotate(-3.000000) translate(-51.973324, -64.724077) "></path>
                        <path d="M29.0566013,69.1605381 C31.9269678,64.4938714 35.280217,64.1605381 39.1163489,68.1605381" id="Path-36-Copy-3" stroke="#000000" stroke-width="1.95348837" transform="translate(34.086475, 67.275923) rotate(-3.000000) translate(-34.086475, -67.275923) "></path>
                    </g>
                </g>
            </g>
        </g>
    </g>
</svg>