<?xml version="1.0" encoding="UTF-8"?>
<svg width="122px" height="154px" viewBox="0 0 122 154" version="1.1" xmlns="http://www.w3.org/2000/svg" xmlns:xlink="http://www.w3.org/1999/xlink">
    <title>camisola</title>
    <defs>
        <path d="M25.3110954,32.7321029 L25.3110954,37.8476459 L25.3583968,94.6417739 L92.5161642,94.6417739 L92.5161642,32.1073872 L114.003627,36.5029793 L118.529467,15.7878369 L80.4751241,0 C77.8553162,12.4431429 70.676035,18.6647144 58.9372805,18.6647144 C47.1985259,18.6647144 40.0192447,12.4431429 37.3994368,0 L0,15.0376589 L4.56787015,36.5029793 L25.3110954,32.7321029 Z" id="path-1"></path>
    </defs>
    <g id="casa-damiao" stroke="none" stroke-width="1" fill="none" fill-rule="evenodd">
        <g id="peuga" transform="translate(-445.000000, -306.000000)">
            <g id="camisola" transform="translate(445.000000, 311.000000)">
                <polyline id="Path-107" stroke="#000000" stroke-width="2.4200001" points="27.8300012 83.9469383 13.3276141 89.3400028 1.21000005 65.1400018"></polyline>
                <polyline id="Path-104" stroke="#000000" stroke-width="2.4200001" transform="translate(55.660002, 121.405004) rotate(-12.000000) translate(-55.660002, -121.405004) " points="31.3488803 102.650003 19.3600008 109.967896 91.960004 140.160005"></polyline>
                <polyline id="Path-105" stroke="#000000" stroke-width="2.4200001" transform="translate(62.315003, 119.590004) rotate(-12.000000) translate(-62.315003, -119.590004) " points="93.8755891 113.540004 101.640004 125.640004 22.990001 125.640004"></polyline>
                <g id="Group-36" transform="translate(0.000000, 24.000000)">
                    <mask id="mask-2" fill="white">
                        <use xlink:href="#path-1"></use>
                    </mask>
                    <use id="Mask" fill="#D3B128" xlink:href="#path-1"></use>
                    <g mask="url(#mask-2)">
                        <g transform="translate(24.200001, -30.250001)">
                            <polygon id="Path-110-Copy" fill="#CC3F22" points="1.72859426 41.3225696 -6.00540101e-13 34.6233257 1.72859426 25.8656194 1.72859426 10.5603577 22.9911767 25.8656194 40.2280115 16.9061757 27.8332049 2.5230492 43.4211093 0 69.3543883 25.8656194 73.1989828 44.8921604 48.5386878 26.4861676 -6.00540101e-13 61.7033944"></polygon>
                            <polygon id="Path-111-Copy" fill="#D3B128" points="6.05268763e-13 61.7033944 6.05268763e-13 78.5266325 39.5754235 49.482102 42.3036342 30.8516972"></polygon>
                            <polygon id="Path-112-Copy" fill="#255DAA" points="42.3036342 30.8516972 80.190841 67.2362056 73.1989828 44.8921604 48.509997 25.8656194"></polygon>
                            <polygon id="Path-113-Copy" fill="#85CFC2" points="42.3036342 30.8516972 39.5754235 49.482102 73.1989828 77.0086561 81.4966508 68.3533084"></polygon>
                            <polygon id="Path-114-Copy" fill="#D8E13B" points="6.05268763e-13 78.5266325 6.05268763e-13 89.8070126 12.1617471 89.8070126 29.6879799 69.6827184 32.9111725 72.5492156 35.6924283 63.5612024 73.1989828 91.7633197 73.1989828 77.0086561 39.5754235 49.482102"></polygon>
                            <polygon id="Path-115-Copy" fill="#85CFC2" points="12.1617471 89.8070126 27.004543 89.8070126 32.9111725 72.5492156 29.6879799 69.6827184"></polygon>
                            <polygon id="Path-116-Copy" fill="#D3B128" points="31.6062214 77.0086561 72.1015522 106.653731 78.4641818 95.4555029 35.6924283 63.5612024"></polygon>
                            <polygon id="Path-117-Copy" fill="#CC3F22" points="27.004543 89.8070126 70.1838743 121.771526 72.1015522 106.653731 31.6062214 77.0086561"></polygon>
                            <polygon id="Path-118-Copy" fill="#255DAA" points="-6.05268763e-13 89.8070126 -6.05268763e-13 100.932751 42.7784138 101.671142 27.004543 89.8070126"></polygon>
                            <polygon id="Path-119-Copy" fill="#85CFC2" points="6.05268763e-13 100.932751 6.05268763e-13 113.871545 59.6960633 113.871545 42.7784138 101.671142"></polygon>
                            <polygon id="Path-120-Copy" fill="#D8E13B" points="6.05268763e-13 113.871545 6.05268763e-13 129.378109 72.1015522 128.631331 70.1838743 121.771526 59.6960633 113.871545"></polygon>
                        </g>
                    </g>
                </g>
                <path d="M39.9300017,81.8092585 C44.446762,79.4099112 45.9523487,76.5510604 44.446762,73.2327062" id="Path-93" stroke="#000000" stroke-width="2.4200001"></path>
                <path d="M44.1781295,78.6306534 C55.8670561,83.8695893 65.2866605,81.0872955 72.4369428,70.283772" id="Path-94" stroke="#000000" stroke-width="2.4200001"></path>
                <path d="M69.9732861,65.1400018 C70.1790018,69.3489791 72.830656,71.0635691 77.9282487,70.283772" id="Path-95" stroke="#000000" stroke-width="2.4200001"></path>
                <circle id="Oval" fill="#000000" cx="61.7633712" cy="69.104258" r="1.81500008"></circle>
                <circle id="Oval-Copy-38" fill="#000000" cx="50.8733707" cy="72.7342582" r="1.81500008"></circle>
                <path d="M37.3994368,24 C46.2681001,27.7335575 58.1001799,32.7330206 80.4751241,24 C77.4089754,37.4183746 71.1623013,42.8117522 59.2900026,42.8117522 C47.4177038,42.8117522 38.0994489,36.7317104 37.3994368,24 Z" id="Path-103" fill="#68291C"></path>
                <polyline id="Path-106" stroke="#000000" stroke-width="2.4200001" points="88.3300038 81.9976134 104.712549 94.180003 121.000005 76.0300023"></polyline>
                <polygon id="Path-96-Copy-3" stroke="#000000" stroke-width="2" transform="translate(58.000000, 15.000000) rotate(-13.000000) translate(-58.000000, -15.000000) " points="44 21.7487312 68.3053563 27 72 8.69788039 64.0573066 18.6845457 59.9527325 6.20031844 51.9620187 15.7738083 48.4654257 3"></polygon>
            </g>
        </g>
    </g>
</svg>