<?xml version="1.0" encoding="UTF-8"?>
<svg width="120px" height="81px" viewBox="0 0 120 81" version="1.1" xmlns="http://www.w3.org/2000/svg" xmlns:xlink="http://www.w3.org/1999/xlink">
    <title>coala</title>
    <g id="casa-damiao" stroke="none" stroke-width="1" fill="none" fill-rule="evenodd">
        <g id="formiga" transform="translate(-263.000000, -345.000000)">
            <g id="coala" transform="translate(263.000000, 345.000000)">
                <path d="M82.3309353,11.0171557 C92.7200398,-0.651086516 104.212069,-3.05097399 116.807021,3.81749329 C114.083887,3.81749329 111.618827,3.98501359 109.411844,4.32005419 C113.705232,5.23145181 116.883888,7.09833487 118.947811,9.92070336 C115.329416,8.88181561 110.690527,7.28499405 108.862425,8.08340483 C112.722319,9.92070336 124.814973,17.9180953 117.396973,31.0942576 C112.451641,39.8783658 107.180449,43.3673004 101.583399,41.5610614" id="Path-158" fill="#A5B1C2"></path>
                <g id="Group-53" transform="translate(19.669065, 21.500000) scale(-1, 1) translate(-19.669065, -21.500000) translate(0.669065, 0.000000)">
                    <path d="M-7.29967645e-14,11.0171557 C10.3891046,-0.651086516 21.8811333,-3.05097399 34.4760861,3.81749329 C31.7529513,3.81749329 29.287892,3.98501359 27.0809084,4.32005419 C31.3742965,5.23145181 34.5529524,7.09833487 36.6168761,9.92070336 C32.9984812,8.88181561 28.3595919,7.28499405 26.5314901,8.08340483 C30.3913838,9.92070336 42.4840373,17.9180953 35.0660381,31.0942576 C30.1207053,39.8783658 24.8495138,43.3673004 19.2524634,41.5610614" id="Path-158-Copy" fill="#A5B1C2"></path>
                    <circle id="Oval-Copy-67" stroke="#000000" stroke-width="2" fill="#F6E8E8" cx="14.5853842" cy="24.0107017" r="11.9856115"></circle>
                </g>
                <circle id="Oval" stroke="#000000" stroke-width="2" fill="#F6E8E8" cx="96.9163194" cy="24.0107017" r="11.9856115"></circle>
                <ellipse id="Oval" fill="#A5B1C2" cx="61.7841727" cy="43.2338129" rx="45.3741007" ry="37.2410072"></ellipse>
                <path d="M60.5913169,48.2841772 C64.0472765,48.2841772 69.1270784,45.7439262 69.1270784,35.405451 C69.1270784,30.1391936 66.3128033,27.1742902 60.6842529,26.5107408 C55.3414696,27.5811096 52.670078,30.3009028 52.670078,34.6701206 C52.670078,41.2239472 55.8339032,48.2841772 60.5913169,48.2841772 Z" id="Path-155" fill="#000000"></path>
                <path d="M60.6842529,48.2841772 L60.6842529,57.7741518 C62.6611706,62.2133779 65.7277089,62.875773 69.8838681,59.7613373" id="Path-156" stroke="#000000" stroke-width="1.71223022" stroke-linecap="round" stroke-linejoin="round"></path>
                <path d="M60.6842529,57.7741518 C57.4380849,62.4343707 54.6238098,63.0517272 52.2414274,59.6262213" id="Path-157" stroke="#000000" stroke-width="1.71223022" stroke-linecap="round" stroke-linejoin="round"></path>
                <circle id="Oval" fill="#B2BFD2" cx="85.7553957" cy="50.5107914" r="5.99280576"></circle>
                <circle id="Oval-Copy-66" fill="#B2BFD2" cx="38.6690647" cy="50.5107914" r="5.99280576"></circle>
                <path d="M72.9136691,29.5172928 C75.299998,26.6884804 77.6346492,26.6884804 79.9176228,29.5172928" id="Path-159" stroke="#000000" stroke-width="1.71223022" stroke-linecap="round" stroke-linejoin="round"></path>
                <path d="M41.2374101,29.9352013 C43.623739,27.1063889 45.9583902,27.1063889 48.2413639,29.9352013" id="Path-159-Copy" stroke="#000000" stroke-width="1.71223022" stroke-linecap="round" stroke-linejoin="round"></path>
            </g>
        </g>
    </g>
</svg>