<?xml version="1.0" encoding="UTF-8"?>
<svg width="116px" height="94px" viewBox="0 0 116 94" version="1.1" xmlns="http://www.w3.org/2000/svg" xmlns:xlink="http://www.w3.org/1999/xlink">
    <title>cuecas</title>
    <g id="casa-damiao" stroke="none" stroke-width="1" fill="none" fill-rule="evenodd">
        <g id="peuga" transform="translate(-264.000000, -347.000000)">
            <g id="cuecas" transform="translate(264.000000, 347.000000)">
                <path d="M4.96036996,3.1538356 C2.39293195,2.96977767 1.63171259,3.69518511 1.63171259,5.83815321 C1.63171259,7.98112132 0.551443681,10.6223977 3.29604128,11.6899414 C2.99569511,14.9004531 -2.72824794,37.1163944 1.63171259,39.2648184 C5.99167313,41.4132424 22.0971708,42.5650499 26.1371468,60.8848508 C27.1188798,68.4940547 26.6636797,73.0309637 31.5046386,74.730789 C36.3455974,76.4306144 66.44132,81.0984657 70.240168,77.9146274 C72.7727333,75.7920685 74.8944385,71.9828189 76.6052836,66.4868786 C77.4458472,64.3703819 78.9020668,62.9075864 80.9739424,62.0984922 C84.0817558,60.8848508 85.8427089,56.840188 105.017331,54.3904753 C108.330075,53.8339705 110.289511,49.396118 110.895638,41.0769178 C111.361921,31.8850071 112.45428,26.6951637 114.172716,25.5073875 C115.891151,24.3196113 116.397534,21.5708329 115.691863,17.2610522 C113.607897,15.4460462 111.594055,14.2196743 109.650337,13.5819367 C106.734759,12.6253303 58,-7.6307196 4.96036996,3.1538356 Z" id="Path-32-Copy-2" fill="#FFFFFF"></path>
                <rect id="Rectangle" stroke="#000000" stroke-width="2.10983607" stroke-linecap="round" transform="translate(54.064221, 23.467526) rotate(5.000000) translate(-54.064221, -23.467526) " x="26.5642213" y="18.4675261" width="55" height="10" rx="4.63157895"></rect>
                <line x1="31.9000069" y1="22.9694288" x2="76.3155914" y2="22.9694288" id="Line" stroke="#000000" stroke-width="2.10983607" stroke-linecap="round" transform="translate(54.107799, 22.969429) rotate(5.000000) translate(-54.107799, -22.969429) "></line>
                <circle id="Oval" fill="#000000" transform="translate(60.134642, 11.450871) rotate(5.000000) translate(-60.134642, -11.450871) " cx="60.1346416" cy="11.4508711" r="2.5"></circle>
                <circle id="Oval-Copy-12" fill="#000000" transform="translate(49.176500, 10.492158) rotate(5.000000) translate(-49.176500, -10.492158) " cx="49.1764999" cy="10.4921579" r="2.5"></circle>
                <polyline id="Path-37-Copy" stroke="#000000" stroke-width="2.10983607" stroke-linecap="round" transform="translate(38.415238, 73.446700) rotate(5.000000) translate(-38.415238, -73.446700) " points="32.4152379 56.9466996 34.953558 84.0225275 33.684398 89.9466996 44.4152379 87.7651237 44.4152379 59.5336048"></polyline>
                <polyline id="Path-38-Copy" stroke="#000000" stroke-width="2.10983607" stroke-linecap="round" transform="translate(57.342937, 75.102659) rotate(5.000000) translate(-57.342937, -75.102659) " points="51.3429372 60.6343298 51.3429372 88.7737284 63.3429372 91.6026587 61.8001039 86.0017451 63.3429372 58.6026587"></polyline>
                <circle id="Oval" stroke="#000000" stroke-width="1.73307963" stroke-linecap="round" transform="translate(50.906402, 43.367577) rotate(12.000000) translate(-50.906402, -43.367577) " cx="50.9064018" cy="43.3675771" r="3.36038961"></circle>
                <path d="M53.8987508,42.2044733 L59.3290609,34.5157157 C60.8496647,39.0267623 61.6099666,44.1251128 61.6099666,49.8107673 C60.0893628,49.1381926 58.048737,48.0266263 55.4880892,46.4760685" id="Path-39" stroke="#000000" stroke-width="1.73307963" stroke-linecap="round" transform="translate(57.754359, 42.163242) rotate(12.000000) translate(-57.754359, -42.163242) "></path>
                <path d="M47.3794677,40.7898501 L39.1057456,34.5850848 C39.2938325,41.7613989 40.2467832,46.972976 41.9645976,50.2198159 C43.6828799,48.3206988 45.7102679,46.223834 48.0467617,43.9292215" id="Path-40" stroke="#000000" stroke-width="1.73307963" stroke-linecap="round" transform="translate(43.576254, 42.402450) rotate(12.000000) translate(-43.576254, -42.402450) "></path>
            </g>
        </g>
    </g>
</svg>
