<?xml version="1.0" encoding="UTF-8"?>
<svg width="88px" height="95px" viewBox="0 0 88 95" version="1.1" xmlns="http://www.w3.org/2000/svg" xmlns:xlink="http://www.w3.org/1999/xlink">
    <title>Group 29</title>
    <g id="casa-damiao" stroke="none" stroke-width="1" fill="none" fill-rule="evenodd">
        <g id="chiclete" transform="translate(-667.000000, -364.000000)">
            <g id="Group-29" transform="translate(667.000000, 364.000000)">
                <circle id="Oval" fill="#E15F41" cx="44" cy="50.0281386" r="44"></circle>
                <path d="M1.33320244,39.3936506 C2.30942866,36.3923438 16.0455616,22.6612349 30.9050772,28.1718094 C36.9279743,30.9591577 40.0018743,39.4133634 41.1027634,50.0281386 C44.8792176,51.2496091 46.738219,51.3739029 46.6797676,50.40102 C47.6333111,36.6512231 50.726439,28.9455213 55.9591511,27.2839146 C63.8082193,24.7915046 74.6967909,24.7915046 87.1842422,41.8247488 C89.7092163,53.1819487 87.1842422,90.0989786 45.7645929,94.0281386 C12.4555794,94.0281386 -5.00607254,65.3436472 1.33320244,39.3936506 Z" id="Path-81" fill="#E77F67"></path>
                <path d="M44.0631419,56.7404395 C44.4144445,58.836677 46.2225926,60.4376253 48.4104338,60.4683662 C48.453254,60.7096596 48.4745763,60.9596294 48.4745763,61.2145793 C48.4745763,63.6858196 46.4712402,65.6891556 44,65.6891556 C41.5287598,65.6891556 39.5254237,63.6858196 39.5254237,61.2145793 C39.5254237,60.9554556 39.5474499,60.7014764 39.589732,60.4544118 C39.6918754,60.4641072 39.7945403,60.4688166 39.8983051,60.4688166 C41.7517353,60.4688166 43.2542373,58.9663146 43.2542373,57.1128844 C43.2542373,57.0091196 43.2495279,56.9064548 43.2403113,56.8050919 C43.4868971,56.7620292 43.7408763,56.7400031 44,56.7400031 L44.0631419,56.7404395 L44.0631419,56.7404395 Z" id="Combined-Shape" fill="#FFFFFF"></path>
                <path d="M43.6131191,49.3834123 L43.6131191,57.0106822 C41.0404603,56.2726273 39.4164752,54.9265403 38.7411638,52.9724209 C38.0658524,51.0183016 39.6898375,49.8219654 43.6131191,49.3834123 L43.6131191,49.3834123 Z M43.617088,49.3965001 C47.2984691,49.826328 48.8015039,51.0183016 48.1261926,52.9724209 C47.4508812,54.9265403 45.9478463,56.2726273 43.617088,57.0106822 L43.617088,49.3965001 Z" id="Combined-Shape" fill="#000000"></path>
                <path d="M43.6131191,57.0106822 C40.6915914,61.499739 37.7694587,61.8980593 34.8467212,58.2056432" id="Path-64" stroke="#000000" stroke-width="1.49152542"></path>
                <path d="M43.6131191,57.0106822 C46.3487101,61.528213 49.4094457,61.8317881 52.795326,57.9214076" id="Path-80" stroke="#000000" stroke-width="1.49152542"></path>
                <circle id="Oval" fill="#000000" cx="61.1525424" cy="41.8247488" r="3.72881356"></circle>
                <circle id="Oval-Copy-34" fill="#000000" cx="26.1016949" cy="41.8247488" r="3.72881356"></circle>
                <path d="M15.3388137,16.9299997 C11.8101015,13.3020609 10.8137215,7.65872772 12.3496739,0 C17.722535,2.09930258 24.043306,4.8419767 25.7479891,10.3410429" id="Path-82" fill="#E15F41"></path>
                <path d="M64.8403908,16.9920366 C61.3116785,13.3640979 60.3152986,7.72076467 61.8512509,0.0620369498 C67.224112,2.16133953 73.544883,4.90401365 75.2495661,10.4030798" id="Path-82-Copy-2" fill="#E15F41" transform="translate(68.201054, 8.527037) scale(-1, 1) translate(-68.201054, -8.527037) "></path>
                <path d="M17.0613,15.7230539 C15.0078593,13.1660956 14.4280424,9.18869449 15.3218492,3.79085051 C18.4484435,5.27043148 22.2513261,7.58127534 23.2433213,11.4569976 C21.7291652,12.4157294 19.6684914,13.8377482 17.0613,15.7230539 Z" id="Path-82-Copy" fill="#E77F67"></path>
                <path d="M66.562877,15.7850908 C64.5094363,13.2281326 63.9296194,9.25073144 64.8234262,3.85288746 C67.9500205,5.33246843 71.7529031,7.64331229 72.7448983,11.5190345 C71.2307422,12.4777663 69.1700685,13.8997851 66.562877,15.7850908 Z" id="Path-82-Copy-3" fill="#E77F67" transform="translate(68.580865, 9.818989) scale(-1, 1) translate(-68.580865, -9.818989) "></path>
            </g>
        </g>
    </g>
</svg>