<?xml version="1.0" encoding="UTF-8"?>
<svg width="141px" height="83px" viewBox="0 0 141 83" version="1.1" xmlns="http://www.w3.org/2000/svg" xmlns:xlink="http://www.w3.org/1999/xlink">
    <title>Group 47 Copy</title>
    <g id="casa-damiao" stroke="none" stroke-width="1" fill="none" fill-rule="evenodd">
        <g id="peuga" transform="translate(-438.000000, -587.000000)">
            <g id="Group-47-Copy" transform="translate(441.000000, 589.000000)">
                <path d="M93,27.4225113 C95.0040882,29.6508804 95.6226842,39.1951263 107.053623,35.5115988 C118.484562,31.8280713 122.52604,32.5831181 123.935261,35.5115988 C124.874743,37.4639193 125.37114,38.9600531 125.424455,40 C125.916838,38.6343946 126.473446,37.9515919 127.094277,37.9515919 C128.025525,37.9515919 129.833676,33.7676549 128.929601,32.7096724 C128.326883,32.0043508 128.558254,31.7573558 129.623713,31.9686873 C130.265953,30.0699639 131.058049,29.2689623 132,29.5656824 C130.970873,26.9725402 124.623816,16.288782 111.678983,21.337813 C109.004426,22.3710348 102.892343,28.7476642 101.338308,29.1566733 C99.7842734,29.5656824 93.9963977,31.9686873 93,27.4225113 Z" id="Path-134" fill="#D3C43F" transform="translate(112.500000, 30.000000) rotate(67.000000) translate(-112.500000, -30.000000) "></path>
                <path d="M10.8114803,17.1629563 C12.8155684,19.3913254 13.4341645,28.9355713 24.8651032,25.2520438 C36.2960418,21.5685164 40.3375198,22.3235631 41.7467417,25.2520438 C42.686223,27.2043644 43.1826207,28.7004981 43.2359348,29.740445 C43.7283185,28.3748396 44.2849261,27.6920369 44.9057578,27.6920369 C45.8370052,27.6920369 47.6451567,23.5080999 46.7410809,22.4501175 C46.1383638,21.7447958 46.3697347,21.4978008 47.4351937,21.7091323 C48.0774333,19.8104089 48.8695289,19.0094073 49.8114803,19.3061274 C48.7823531,16.7129852 42.4352967,6.02922704 29.4904634,11.078258 C26.815906,12.1114799 20.7038228,18.4881092 19.1497882,18.8971183 C17.5957536,19.3061274 11.807878,21.7091323 10.8114803,17.1629563 Z" id="Path-134" fill="#F2F2F7" transform="translate(30.311480, 19.740445) scale(-1, 1) rotate(9.000000) translate(-30.311480, -19.740445) "></path>
                <path d="M13.8114803,32.1629563 C15.8155684,34.3913254 16.4341645,43.9355713 27.8651032,40.2520438 C39.2960418,36.5685164 43.3375198,37.3235631 44.7467417,40.2520438 C45.686223,42.2043644 46.1826207,43.7004981 46.2359348,44.740445 C46.7283185,43.3748396 47.2849261,42.6920369 47.9057578,42.6920369 C48.8370052,42.6920369 50.6451567,38.5080999 49.7410809,37.4501175 C49.1383638,36.7447958 49.3697347,36.4978008 50.4351937,36.7091323 C51.0774333,34.8104089 51.8695289,34.0094073 52.8114803,34.3061274 C51.7823531,31.7129852 45.4352967,21.029227 32.4904634,26.078258 C29.815906,27.1114799 23.7038228,33.4881092 22.1497882,33.8971183 C20.5957536,34.3061274 14.807878,36.7091323 13.8114803,32.1629563 Z" id="Path-134" fill="#421B4D" transform="translate(33.311480, 34.740445) scale(-1, 1) rotate(46.000000) translate(-33.311480, -34.740445) "></path>
                <g id="Group-3" transform="translate(68.813769, 0.000000)" stroke="#000000">
                    <polyline id="Path-113" stroke-width="2" points="7.81597009e-14 20.7680288 49.1187901 1.77635684e-15 65.1862313 3.93349359 5.09969284 28.8710938"></polyline>
                    <line x1="12.7596196" y1="25.9673603" x2="8.1862313" y2="18" id="Path-115" stroke-width="1.77777778"></line>
                    <line x1="20.3598424" y1="21.6254006" x2="15.1862313" y2="14" id="Path-117" stroke-width="1.77777778"></line>
                    <line x1="29.9733407" y1="18.7783787" x2="22.6750008" y2="11.0384615" id="Path-119" stroke-width="1.77777778"></line>
                    <line x1="29.1186685" y1="8.56254604" x2="38.6862313" y2="14.8244858" id="Path-121" stroke-width="1.77777778"></line>
                    <line x1="36.1854288" y1="5.67787734" x2="48.1251961" y2="10.8705929" id="Path-123" stroke-width="1.77777778"></line>
                    <line x1="42.3146493" y1="3.07763986" x2="55.5105368" y2="7.61438301" id="Path-125" stroke-width="1.77777778"></line>
                </g>
                <g id="Group-3-Copy" transform="translate(33.000000, 15.500000) scale(-1, 1) translate(-33.000000, -15.500000) translate(0.000000, 1.000000)" stroke="#000000">
                    <polyline id="Path-113" stroke-width="2" points="7.81597009e-14 20.7680288 49.1187901 1.77635684e-15 65.1862313 3.93349359 5.09969284 28.8710938"></polyline>
                    <line x1="12.7596196" y1="25.9673603" x2="8.1862313" y2="18" id="Path-115" stroke-width="1.77777778"></line>
                    <line x1="20.3598424" y1="21.6254006" x2="15.1862313" y2="14" id="Path-117" stroke-width="1.77777778"></line>
                    <line x1="29.9733407" y1="18.7783787" x2="22.6750008" y2="11.0384615" id="Path-119" stroke-width="1.77777778"></line>
                    <line x1="29.1186685" y1="8.56254604" x2="38.6862313" y2="14.8244858" id="Path-121" stroke-width="1.77777778"></line>
                    <line x1="36.1854288" y1="5.67787734" x2="48.1251961" y2="10.8705929" id="Path-123" stroke-width="1.77777778"></line>
                    <line x1="42.3146493" y1="3.07763986" x2="55.5105368" y2="7.61438301" id="Path-125" stroke-width="1.77777778"></line>
                </g>
                <path d="M37.9401709,79.9527244 L41.7646902,65.755609 L66.7266633,19.4925181 C66.9418461,19.0937107 67.4395835,18.9448535 67.838391,19.1600363 C67.9689369,19.2304744 68.077946,19.3349846 68.1538204,19.4624477 L95.2290331,64.9467147 L95.2290331,64.9467147 L99.7346421,78.4759615 L68.159794,25.870393 C67.9265843,25.4818518 67.4225556,25.3559307 67.0340145,25.5891404 C66.906433,25.6657172 66.8020767,25.7755463 66.7321153,25.906872 L37.9401709,79.9527244 L37.9401709,79.9527244 Z" id="Path-112" stroke="#000000" stroke-width="2" fill="#BB3838" stroke-linejoin="round"></path>
                <path d="M45.6241506,19.4377367 L44.6261506,21.3745051 L44.8673173,21.5291659 L46.076484,19.8661573 L46.076484,19.8661573 L47.3978729,18.0488478 L47.9658173,17.2677477 L47.6464284,17.034707 L46.9992618,17.6209069 C47.0661506,17.7818645 47.0042618,18.0036909 46.839484,18.1529545 C46.6747618,18.3021581 46.4615951,18.3294441 46.3263729,18.2304348 L46.1760951,18.3665651 L45.6982062,19.2939903 L45.6241506,19.4377367 Z M45.1493729,18.5879118 L46.0784284,18.2409295 L46.2287062,18.1047992 C46.1618173,17.9438416 46.2237062,17.7220751 46.388484,17.5728115 C46.5532618,17.423548 46.7664284,17.396202 46.9015951,17.4953312 L47.5487618,16.9091313 L47.3916506,16.5291659 L47.0035395,16.7530912 L44.6930395,18.0864486 L44.6930395,18.0864486 L42.9658173,19.0830183 L43.0650395,19.3662533 L45.0053173,18.6416443 L45.1493729,18.5879118 Z" id="Shape" stroke="#000000" fill="#000000" fill-rule="nonzero" transform="translate(45.465817, 19.029166) rotate(137.000000) translate(-45.465817, -19.029166) "></path>
                <path d="M48.6583333,10.9085708 L47.6603333,12.8453392 L47.9015,13 L49.1106667,11.3369915 L49.1106667,11.3369915 L50.4320556,9.51968192 L51,8.73858185 L50.6806111,8.50554116 L50.0334444,9.09174103 C50.1003333,9.25269862 50.0384444,9.47452504 49.8736667,9.62378862 C49.7089444,9.77299223 49.4957778,9.80027826 49.3605556,9.70126895 L49.2102778,9.83739925 L48.7323889,10.7648244 L48.6583333,10.9085708 Z M48.1835556,10.0587459 L49.1126111,9.71176358 L49.2628889,9.57563328 C49.196,9.41467569 49.2578889,9.19290923 49.4226667,9.04364565 C49.5874444,8.89438208 49.8006111,8.86703608 49.9357778,8.96616532 L50.5829444,8.37996546 L50.4258333,8 L50.0377222,8.22392535 L47.7272222,9.55728267 L47.7272222,9.55728267 L46,10.5538524 L46.0992222,10.8370874 L48.0395,10.1124784 L48.1835556,10.0587459 Z" id="Shape-Copy" stroke="#000000" fill="#000000" fill-rule="nonzero" transform="translate(48.500000, 10.500000) rotate(137.000000) translate(-48.500000, -10.500000) "></path>
                <path d="M105.658333,10.9085708 L104.660333,12.8453392 L104.9015,13 L106.110667,11.3369915 L106.110667,11.3369915 L107.432056,9.51968192 L108,8.73858185 L107.680611,8.50554116 L107.033444,9.09174103 C107.100333,9.25269862 107.038444,9.47452504 106.873667,9.62378862 C106.708944,9.77299223 106.495778,9.80027826 106.360556,9.70126895 L106.210278,9.83739925 L105.732389,10.7648244 L105.658333,10.9085708 Z M105.183556,10.0587459 L106.112611,9.71176358 L106.262889,9.57563328 C106.196,9.41467569 106.257889,9.19290923 106.422667,9.04364565 C106.587444,8.89438208 106.800611,8.86703608 106.935778,8.96616532 L107.582944,8.37996546 L107.425833,8 L107.037722,8.22392535 L104.727222,9.55728267 L104.727222,9.55728267 L103,10.5538524 L103.099222,10.8370874 L105.0395,10.1124784 L105.183556,10.0587459 Z" id="Shape" stroke="#000000" fill="#000000" fill-rule="nonzero" transform="translate(105.500000, 10.500000) rotate(137.000000) translate(-105.500000, -10.500000) "></path>
                <rect id="Rectangle" stroke="#000000" stroke-width="2" fill="#FFFFFF" x="46" y="45" width="43" height="14"></rect>
                <line x1="50" y1="45" x2="50" y2="58" id="Path-126" stroke="#000000" stroke-width="2"></line>
                <line x1="55" y1="45" x2="55" y2="58" id="Path-126-Copy" stroke="#000000" stroke-width="2"></line>
                <line x1="60" y1="45" x2="60" y2="58" id="Path-126-Copy-2" stroke="#000000" stroke-width="2"></line>
                <line x1="65" y1="45" x2="65" y2="58" id="Path-126-Copy-3" stroke="#000000" stroke-width="2"></line>
                <line x1="70" y1="45" x2="70" y2="58" id="Path-126-Copy-4" stroke="#000000" stroke-width="2"></line>
                <line x1="75" y1="45" x2="75" y2="58" id="Path-126-Copy-5" stroke="#000000" stroke-width="2"></line>
                <line x1="80" y1="45" x2="80" y2="58" id="Path-126-Copy-6" stroke="#000000" stroke-width="2"></line>
                <line x1="85" y1="45" x2="85" y2="58" id="Path-126-Copy-7" stroke="#000000" stroke-width="2"></line>
                <path d="M73.5462816,39.766193 L70.2424608,38.0712161 C69.8871538,37.8894064 69.4759958,38.0665343 69.2954299,38.4791994 C68.8459587,39.5075451 68.9134605,40.7547402 69.4699273,41.703292 C70.026394,42.6518438 70.9768585,43.1398718 71.9269492,42.9648809 C72.8770399,42.7898899 73.6646135,41.9817441 73.9628859,40.8757635 C74.0832269,40.4310448 73.9021784,39.9488464 73.5462816,39.766193 L73.5462816,39.766193 Z" id="Path-Copy-2" fill="#000000" fill-rule="nonzero" transform="translate(71.500000, 40.500000) scale(-1, 1) rotate(5.000000) translate(-71.500000, -40.500000) "></path>
                <path d="M66.5462816,39.766193 L63.2424608,38.0712161 C62.8871538,37.8894064 62.4759958,38.0665343 62.2954299,38.4791994 C61.8459587,39.5075451 61.9134605,40.7547402 62.4699273,41.703292 C63.026394,42.6518438 63.9768585,43.1398718 64.9269492,42.9648809 C65.8770399,42.7898899 66.6646135,41.9817441 66.9628859,40.8757635 C67.0832269,40.4310448 66.9021784,39.9488464 66.5462816,39.766193 L66.5462816,39.766193 Z" id="Path-Copy-3" fill="#000000" fill-rule="nonzero" transform="translate(64.500000, 40.500000) rotate(5.000000) translate(-64.500000, -40.500000) "></path>
                <path d="M67.5,35.9404297 C61.0292198,29.4135742 56.2759052,26.740804 53.2400562,27.9221191 C56.2512687,29.277832 63.5,34.3339844 67.5,39.1669922 C69.719401,36.6611328 74.2226563,33.12736 81.0097656,28.5656738 L67.5,35.9404297 Z" id="Path-127" stroke="#000000" fill="#000000"></path>
                <line x1="119" y1="13.3547175" x2="127.828108" y2="10" id="Path-128" stroke="#000000" stroke-width="2" stroke-linecap="round" stroke-linejoin="round"></line>
                <line x1="122" y1="15.3547175" x2="126" y2="14" id="Path-128-Copy" stroke="#000000" stroke-width="2" stroke-linecap="round" stroke-linejoin="round"></line>
            </g>
        </g>
    </g>
</svg>