<?xml version="1.0" encoding="UTF-8"?>
<svg width="114px" height="121px" viewBox="0 0 114 121" version="1.1" xmlns="http://www.w3.org/2000/svg" xmlns:xlink="http://www.w3.org/1999/xlink">
    <title>Group 52</title>
    <g id="casa-damiao" stroke="none" stroke-width="1" fill="none" fill-rule="evenodd">
        <g id="formiga" transform="translate(-262.000000, -71.000000)">
            <g id="Group-52" transform="translate(262.000000, 71.000000)">
                <path d="M65.709219,72.7501421 L71.7276735,83.3413319 C67.0030272,97.146424 56.6777391,101.241921 40.7518092,95.6278221 C37.208685,93.4699558 23.3636923,83.7443707 39.238568,71.522987 C47.5807588,66.6460006 56.4043092,67.0550523 65.709219,72.7501421 Z" id="Path-140" fill="#E77F67"></path>
                <path d="M65.709219,72.7501421 C66.0547555,68.7681485 68.0609069,66.7771516 71.7276735,66.7771516 C76.0123392,69.9410419 79.8594705,72.8994413 83.2690674,75.6523497 C83.2820902,83.4561143 79.4349588,86.0191084 71.7276735,83.3413319 C69.1578548,78.7891505 67.1517034,75.2587539 65.709219,72.7501421 Z" id="Path-141" fill="#E77F67"></path>
                <path d="M88.2408789,76.6171939 C99.7531593,76.6171939 109.085707,67.2846467 109.085707,55.7723663 C109.085707,44.2600859 99.7531593,34.9275387 88.2408789,34.9275387 C76.7285986,34.9275387 67.3960514,44.2600859 67.3960514,55.7723663 C67.3960514,59.8844417 67.7786071,62.4485007 70.6421599,66.9483202 C76.7285986,71.522987 76.7285986,72.3455006 83.3864951,76.0489589 C84.9440874,76.4204862 86.5695114,76.6171939 88.2408789,76.6171939 Z" id="Oval" fill="#E77F67"></path>
                <g id="Group-13-Copy" transform="translate(91.458450, 55.096032) scale(-1, 1) rotate(7.000000) translate(-91.458450, -55.096032) translate(70.458450, 43.096032)">
                    <circle id="Oval" stroke="#000000" stroke-width="2" cx="27.2272628" cy="10.9974311" r="8.01178381"></circle>
                    <ellipse id="Oval-Copy-36" stroke="#000000" stroke-width="2" cx="7.82901634" cy="8.70629961" rx="6.63710492" ry="7.70629961"></ellipse>
                    <line x1="14.6484581" y1="10.2428348" x2="18.9078256" y2="10.3268575" id="Path-84" stroke="#000000" stroke-width="2"></line>
                    <line x1="36.2390466" y1="12.5637111" x2="41.2201269" y2="13.5275359" id="Path-85" stroke="#000000" stroke-width="2"></line>
                    <circle id="Oval" fill="#000000" cx="11.4948267" cy="9.9282364" r="1.22193679"></circle>
                    <circle id="Oval-Copy-37" fill="#000000" cx="22.4922578" cy="11.4556574" r="1.22193679"></circle>
                    <polyline id="Path-87" stroke="#000000" stroke-width="2" points="16.8408001 14.5054853 15.0134509 19.3336742 17.4672799 19.0724563"></polyline>
                    <path d="M15.4661213,22.2612273 C17.1913916,23.9892386 18.7405024,23.65954 20.1134536,21.2721314" id="Path-88" stroke="#000000" stroke-width="2"></path>
                </g>
                <path d="M88.9132927,35.7085478 C88.3423805,28.732105 91.9285874,24.7029803 99.6719134,23.6211737" id="Path-142" stroke="#000000" stroke-width="2.68965517" stroke-linecap="round" stroke-linejoin="round"></path>
                <path d="M61.6429309,89.6506575 C72.3783955,97.3376519 75.7399764,106.848118 71.7276735,118.182055 C75.3883714,118.182055 77.5307042,118.182055 78.154672,118.182055" id="Path-143" stroke="#000000" stroke-width="2.68965517" stroke-linecap="round" stroke-linejoin="round"></path>
                <path d="M56.7306969,98.0623806 C54.8894668,106.455233 49.9553038,111.906725 41.9282079,114.416857 C42.5291706,116.425985 44.0245142,117.834446 46.6769833,118.743062" id="Path-144" stroke="#000000" stroke-width="2.68965517" stroke-linecap="round" stroke-linejoin="round"></path>
                <path d="M67.3960514,68.1482956 C59.3661152,62.8033142 54.8735666,57.3931117 53.9184054,51.917688" id="Path-145" stroke="#000000" stroke-width="2.68965517" stroke-linecap="round" stroke-linejoin="round"></path>
                <path d="M0.354019701,56.6462779 C-1.24889576,47.2328247 1.72929244,19.6370426 27.5023271,6.85725054 C31.776035,12.4781057 38.6436015,17.2865571 47.6871492,12.0719038 C53.716181,8.5954683 55.7932664,4.57150036 53.9184054,-4.77778736e-14 C63.9502056,0.235221508 69.8866282,1.13904533 71.7276735,2.71147146 C72.9735899,6.85725054 83.2321878,41.4941774 49.3294524,60.4792629 C42.9076063,64.2075074 25.2348609,71.522987 0.354019701,56.6462779 Z" id="Path-146" fill="#1A8084"></path>
                <path d="M2.1604512,55.3979672 C37.1766444,36.325563 57.2515686,21.5743282 62.3852238,11.1442629" id="Path-147" stroke="#000000" stroke-width="2.68965517" stroke-linecap="round" stroke-linejoin="round"></path>
                <path d="M17.5110959,47.5419236 C20.6696093,50.9139199 24.7421692,52.5999181 29.7287755,52.5999181" id="Path-148" stroke="#000000" stroke-width="2.68965517" stroke-linecap="round" stroke-linejoin="round"></path>
                <path d="M23.6199357,43.3398099 C22.6646949,34.2456404 22.9993196,26.9682052 24.62381,21.5075043" id="Path-149" stroke="#000000" stroke-width="2.68965517" stroke-linecap="round" stroke-linejoin="round"></path>
                <path d="M31.3696217,38.9620215 C36.5596553,43.2340591 43.8615686,45.3700779 53.2753617,45.3700779" id="Path-150" stroke="#000000" stroke-width="2.68965517" stroke-linecap="round" stroke-linejoin="round"></path>
                <path d="M47.4899782,27.4371558 C52.0580101,29.9811439 56.4470935,29.9811439 60.6572284,27.4371558" id="Path-151" stroke="#000000" stroke-width="2.68965517" stroke-linecap="round" stroke-linejoin="round"></path>
                <circle id="Oval" fill="#000000" cx="100.344327" cy="23.4965043" r="3.36206897"></circle>
            </g>
        </g>
    </g>
</svg>