<?xml version="1.0" encoding="UTF-8"?>
<svg width="102px" height="101px" viewBox="0 0 102 101" version="1.1" xmlns="http://www.w3.org/2000/svg" xmlns:xlink="http://www.w3.org/1999/xlink">
    <title>javali</title>
    <g id="casa-damiao" stroke="none" stroke-width="1" fill="none" fill-rule="evenodd">
        <g id="formiga" transform="translate(-449.000000, -330.000000)">
            <g id="javali" transform="translate(449.000000, 330.000000)">
                <g id="Group-55">
                    <path d="M15.593676,81.0625878 C13.3528595,84.0534569 10.8779607,85.5488915 8.16897949,85.5488915 C5.4599983,85.5488915 4.58960759,79.4314295 5.55780736,67.1965055 C1.85260245,68.403733 0,66.9478617 0,62.8288915 C0,56.6504362 11.9489149,42.2857589 21.3188028,42.2857589 C21.3188028,39.6146482 21.3188028,37.8766466 21.3188028,37.0717541 C12.5522539,37.391108 8.16897949,31.5127343 8.16897949,19.436633 C8.16897949,7.36053172 8.99912013,0.881654055 10.6594014,0 C20.3711751,4.12081471 27.9063334,10.861926 33.2648761,20.223334 C44.2631118,15.8675475 53.0792814,12.3763533 67.9036434,20.223334 C76.1417492,11.125087 83.5091427,2.18429143 91.5497387,0 C92.8316051,8.51128128 98.247268,35.9234155 81.2886875,37.0717541 C81.2886875,38.4556209 81.2886875,40.1936225 81.2886875,42.2857589 C91.5451872,45.1762793 98.2921332,51.7907186 101.529526,62.129077 C102.256,64.3736848 102.148793,70.0193262 95.8478372,67.1965055 C96.673437,73.5231616 97.0927119,86.069584 92.6461803,86.069584 C89.6818259,86.069584 87.3808314,84.5685997 85.7431967,81.566631 C78.6122825,94.3307017 67.1903073,100.712737 51.4772711,100.712737 C35.7642349,100.712737 23.8030366,94.1626873 15.593676,81.0625878 Z" id="Path-160" fill="#AE8A7C"></path>
                    <path d="M66.3872246,69.4399907 C72.6218535,67.8783895 75.7391679,64.629491 75.7391679,59.6932951 C77.8987856,68.0003736 81.0902121,75.3244114 67.9527938,80.1943032" id="Path-161" fill="#FFFFFF"></path>
                    <path d="M25.2784772,69.4399907 C31.5131061,67.8783895 34.6304205,64.629491 34.6304205,59.6932951 C36.7900382,68.0003736 39.9814647,75.3244114 26.8440464,80.1943032" id="Path-161-Copy" fill="#FFFFFF" transform="translate(30.944995, 69.943799) scale(-1, 1) translate(-30.944995, -69.943799) "></path>
                    <path d="M13.7689541,7.69558726 C29.8347242,20.5319726 34.4992707,28.8973923 27.7625934,32.7918462 C17.6575774,38.6335271 13.5541423,26.933848 12.6754833,22.8270646 C11.8075058,19.3585509 12.171996,14.3147251 13.7689541,7.69558726 Z" id="Path-162" fill="#343636"></path>
                    <path d="M71.9779503,7.69558726 C88.0437204,20.5319726 92.7082668,28.8973923 85.9715895,32.7918462 C75.8665736,38.6335271 71.7631385,26.933848 70.8844794,22.8270646 C70.0165019,19.3585509 70.3809922,14.3147251 71.9779503,7.69558726 Z" id="Path-162-Copy" fill="#343636" transform="translate(79.691500, 21.045133) scale(-1, 1) translate(-79.691500, -21.045133) "></path>
                    <ellipse id="Oval" fill="#444442" cx="51.6145428" cy="75.3103491" rx="18.8114754" ry="10.4508197"></ellipse>
                    <ellipse id="Oval" fill="#000000" transform="translate(43.671920, 75.310349) rotate(20.000000) translate(-43.671920, -75.310349) " cx="43.6719198" cy="75.3103491" rx="2.50819672" ry="3.76229508"></ellipse>
                    <ellipse id="Oval-Copy-68" fill="#000000" transform="translate(59.557166, 75.310349) rotate(-20.000000) translate(-59.557166, -75.310349) " cx="59.5571657" cy="75.3103491" rx="2.50819672" ry="3.76229508"></ellipse>
                </g>
                <circle id="Oval" fill="#000000" cx="61.6473296" cy="48.5562507" r="2.09016393"></circle>
                <circle id="Oval-Copy-70" fill="#000000" cx="41.5817559" cy="48.5562507" r="2.09016393"></circle>
                <path d="M45.8676947,16.1443163 L46.1801165,65.2937586 L50.2356729,71.7461484 C50.4813911,72.137086 50.9975025,72.2548096 51.3884401,72.0090914 C51.480694,71.9511066 51.5607237,71.8756475 51.6240273,71.7869588 L56.2587027,65.2937586 L56.2587027,65.2937586 C56.5365077,40.4076826 56.7890696,24.0245352 57.0163883,16.1443163 C53.6056806,15.3464176 49.8894494,15.3464176 45.8676947,16.1443163 Z" id="Path-163" fill="#C6B0A5"></path>
                <g id="almofada-copy" transform="translate(34.475198, 4.662808)" stroke="#000000" stroke-linecap="round" stroke-width="2.13813491">
                    <g id="Group-56" transform="translate(0.035190, 0.014305)">
                        <circle id="Oval-Copy-69" transform="translate(16.585531, 11.934131) rotate(12.000000) translate(-16.585531, -11.934131) " cx="16.5855307" cy="11.9341308" r="4.1457797"></circle>
                        <path d="M20.2772514,10.4991864 L26.9767332,1.01341282 C28.8527325,6.57878098 29.7907321,12.8687178 29.7907321,19.8832232 C27.9147328,19.0534543 25.3971721,17.6820928 22.2380498,15.7691387" id="Path-39-Copy" transform="translate(25.033992, 10.448318) rotate(12.000000) translate(-25.033992, -10.448318) "></path>
                        <path d="M12.2342817,8.75393757 L2.02682563,1.09899487 C2.25887231,9.95255676 3.43454659,16.3821833 5.55384849,20.3878746 C7.67372761,18.0448959 10.1749567,15.4579519 13.0575357,12.6270428" id="Path-40-Copy" transform="translate(7.542181, 10.743435) rotate(12.000000) translate(-7.542181, -10.743435) "></path>
                    </g>
                </g>
            </g>
        </g>
    </g>
</svg>