<?xml version="1.0" encoding="UTF-8"?>
<svg width="120px" height="73px" viewBox="0 0 120 73" version="1.1" xmlns="http://www.w3.org/2000/svg" xmlns:xlink="http://www.w3.org/1999/xlink">
    <title>lago</title>
    <g id="casa-damiao" stroke="none" stroke-width="1" fill="none" fill-rule="evenodd">
        <g id="formiga" transform="translate(-261.000000, -599.000000)">
            <g id="lago" transform="translate(261.000000, 599.000000)">
                <ellipse id="Oval" fill="#9DB3A9" cx="60" cy="38.5" rx="60" ry="34.5"></ellipse>
                <path d="M83.2781464,27 C66.1862479,27.1425125 57.6402987,29.9420422 57.6402987,35.3985891 C57.6402987,40.855136 53.7325857,43.5853888 45.9171598,43.5893475 C40.6798249,45.7333182 38.9192015,47.8863084 40.6352897,50.0483179 C43.209422,53.2913323 80.7058008,70.4942979 95.7252838,50.0483179 C105.738272,36.4176646 101.589227,28.7348919 83.2781464,27 Z" id="Path-165" fill="#DAFEFF"></path>
                <g id="Group-59-Copy-3" transform="translate(37.000000, 0.000000)" stroke="#000000" stroke-width="2.60000014">
                    <circle id="Oval" cx="13.0000007" cy="13.0000007" r="11.7000006"></circle>
                    <line x1="12.5196412" y1="32.7436653" x2="12.5196412" y2="10.5680334" id="Path-166" stroke-linecap="round" stroke-linejoin="round"></line>
                    <polyline id="Path-167" stroke-linecap="round" stroke-linejoin="round" points="6.69372949 14.3000008 12.5196412 19.8896452 18.5760161 14.3000008"></polyline>
                </g>
                <g id="Group-59-Copy-4" transform="translate(10.000000, 5.000000)" stroke="#000000" stroke-width="2.60000014">
                    <circle id="Oval" cx="13.0000007" cy="13.0000007" r="11.7000006"></circle>
                    <line x1="12.5196412" y1="32.7436653" x2="12.5196412" y2="10.5680334" id="Path-166" stroke-linecap="round" stroke-linejoin="round"></line>
                    <polyline id="Path-167" stroke-linecap="round" stroke-linejoin="round" points="6.69372949 14.3000008 12.5196412 19.8896452 18.5760161 14.3000008"></polyline>
                </g>
            </g>
        </g>
    </g>
</svg>