<?xml version="1.0" encoding="UTF-8"?>
<svg width="114px" height="117px" viewBox="0 0 114 117" version="1.1" xmlns="http://www.w3.org/2000/svg" xmlns:xlink="http://www.w3.org/1999/xlink">
    <title>maquina-lavar</title>
    <g id="casa-damiao" stroke="none" stroke-width="1" fill="none" fill-rule="evenodd">
        <g id="peuga" transform="translate(-77.000000, -563.000000)">
            <g id="maquina-lavar" transform="translate(134.327635, 621.125194) rotate(-2.000000) translate(-134.327635, -621.125194) translate(80.827635, 565.125194)">
                <rect id="Rectangle" fill="#F2F2F7" transform="translate(55.175716, 55.933247) rotate(-7.000000) translate(-55.175716, -55.933247) " x="13.1757158" y="4.93324687" width="84" height="102" rx="2"></rect>
                <g id="Group-41" transform="translate(12.123671, 5.914883)">
                    <rect id="Rectangle-Copy-63" stroke="#000000" stroke-width="2" x="0.175715829" y="0.933246871" width="84" height="102" rx="2"></rect>
                    <g id="noun_evil_2203345" transform="translate(54.377492, 55.305687) rotate(-12.000000) translate(-54.377492, -55.305687) translate(47.877492, 49.805687)"></g>
                    <circle id="Oval" stroke="#000000" stroke-width="2" fill="#74B9FF" cx="42.1757158" cy="56.9332469" r="26"></circle>
                    <circle id="Oval-Copy-52" stroke="#000000" stroke-width="2" cx="42.1757158" cy="56.9332469" r="30"></circle>
                    <path d="M36.9945744,52.2904857 L28.4046401,48.5615365 C27.4808421,48.1615551 26.4118313,48.5512365 25.9423599,49.4590997 C24.7737347,51.7214602 24.9492395,54.4652895 26.396053,56.5521035 C27.8428664,58.6389175 30.3140743,59.7125791 32.7843101,59.327599 C35.2545459,58.9426189 37.3022373,57.164698 38.0777456,54.7315407 C38.3906319,53.7531597 37.9199061,52.692323 36.9945744,52.2904857 L36.9945744,52.2904857 Z" id="Path" fill="#000000" fill-rule="nonzero" transform="translate(31.674242, 53.904861) rotate(-22.000000) translate(-31.674242, -53.904861) "></path>
                    <path d="M56.9960481,48.2904857 L48.4061138,44.5615365 C47.4823158,44.1615551 46.413305,44.5512365 45.9438336,45.4590997 C44.7752084,47.7214602 44.9507132,50.4652895 46.3975267,52.5521035 C47.8443401,54.6389175 50.315548,55.7125791 52.7857838,55.327599 C55.2560196,54.9426189 57.303711,53.164698 58.0792193,50.7315407 C58.3921056,49.7531597 57.9213798,48.692323 56.9960481,48.2904857 L56.9960481,48.2904857 Z" id="Path-Copy-2" fill="#000000" fill-rule="nonzero" transform="translate(51.675716, 49.904861) scale(-1, 1) rotate(5.000000) translate(-51.675716, -49.904861) "></path>
                    <line x1="0.675715829" y1="17.4332469" x2="83.6757158" y2="17.4332469" id="Line-4" stroke="#000000" stroke-width="2" stroke-linecap="square"></line>
                    <rect id="Rectangle" stroke="#000000" stroke-width="2" x="8.17571583" y="6.93324687" width="18" height="5" rx="1"></rect>
                    <circle id="Oval" stroke="#000000" stroke-width="2" cx="73.1757158" cy="8.93324687" r="3"></circle>
                    <g id="Group-40" transform="translate(49.266908, 74.376877) rotate(15.000000) translate(-49.266908, -74.376877) translate(25.266908, 51.376877)" fill="#0984E3" stroke="#000000" stroke-width="1.98572806">
                        <path d="M34.7216924,4.54776513 C32.5368472,1.16313681 24.8196031,0.921090318 25.4006127,11.3052969 C25.9816223,21.6895035 28.6302903,27.3353212 19.5872525,31.5304689 C25.9816223,35.3672051 31.5115995,35.1264401 36.4341574,28.3977879 C41.3567154,21.6691358 38.0536195,9.70938232 34.7216924,4.54776513 Z" id="Path-11-Copy-2" transform="translate(29.261312, 18.244397) scale(-1, 1) rotate(50.000000) translate(-29.261312, -18.244397) "></path>
                        <path d="M17.884474,14.3475126 C15.6996287,10.9628843 7.98238465,10.7208378 8.56339427,21.1050444 C9.14440388,31.489251 11.7930718,37.1350686 2.75003401,41.3302164 C9.14440388,45.1669526 14.674381,44.9261876 19.596939,38.1975354 C22.0202262,34.8851404 22.4500947,30.3050315 21.8644293,25.8923025 C19.6873869,21.181651 17.9799745,18.0309921 17.884474,14.3475126 Z" id="Path-11-Copy-3" transform="translate(12.424094, 28.044144) rotate(-10.000000) translate(-12.424094, -28.044144) "></path>
                    </g>
                </g>
                <path d="M58.4791431,57.4882104 L59.2847734,58.7078855 C59.5891648,59.1687156 60.2094994,59.2955341 60.6703294,58.9911427 C60.7749784,58.9220191 60.8656905,58.8338267 60.9377339,58.7311659 L72.5218513,42.2239697 C72.8391,41.7718948 72.7298019,41.1482348 72.2777271,40.830986 C72.2424729,40.806246 72.2056572,40.7838093 72.16751,40.7638161 L67.707254,38.4261717 C67.2180822,38.1697942 66.6136951,38.3585111 66.3573175,38.8476829 C66.348036,38.8653922 66.3392876,38.8833759 66.3310843,38.9016097 L58.4015927,56.5267752 C58.26096,56.8393647 58.2902269,57.2022026 58.4791431,57.4882104 Z" id="Path-100" fill="#000000" transform="translate(65.675716, 48.933247) rotate(22.000000) translate(-65.675716, -48.933247) "></path>
                <path d="M27.4777819,64.0913167 L28.5399112,65.7036153 C28.8437368,66.1648186 29.4639152,66.2923985 29.9251185,65.9885729 C30.0305494,65.9191185 30.1218746,65.8303276 30.1942678,65.7268925 L43.5245682,46.6806211 C43.8412494,46.2281485 43.7311687,45.6046262 43.278696,45.287945 C43.2440542,45.2636995 43.2079095,45.2416756 43.1704796,45.2220059 L37.8541594,42.4282436 C37.3652697,42.1713287 36.7606756,42.3593815 36.5037607,42.8482713 C36.4941344,42.8665893 36.4850791,42.8852017 36.4766078,42.9040816 L27.4004982,63.1318166 C27.2605013,63.4438249 27.2896518,63.8057377 27.4777819,64.0913167 Z" id="Path-100-Copy" fill="#000000" transform="translate(35.675716, 54.433247) scale(-1, 1) rotate(51.000000) translate(-35.675716, -54.433247) "></path>
                <polyline id="Path-101" stroke="#000000" stroke-width="2" points="106.356492 8.10712053 102.87388 13.0267155 106.356492 15.3673157 102.87388 19.3046365 106.356492 21.5815578 102.87388 26.1598277 106.87388 29.096388 103.548613 34.1071205"></polyline>
                <polyline id="Path-101-Copy" stroke="#000000" stroke-width="2" points="3.67913807 83.031008 0.196525766 87.950603 3.67913807 90.2912032 0.196525766 94.228524 3.67913807 96.5054453 0.196525766 101.083715 4.19652577 104.020275 0.871258645 109.031008"></polyline>
            </g>
        </g>
    </g>
</svg>