<?xml version="1.0" encoding="UTF-8"?>
<svg width="113px" height="131px" viewBox="0 0 113 131" version="1.1" xmlns="http://www.w3.org/2000/svg" xmlns:xlink="http://www.w3.org/1999/xlink">
    <title>meia</title>
    <g id="casa-damiao" stroke="none" stroke-width="1" fill="none" fill-rule="evenodd">
        <g id="peuga" transform="translate(-267.000000, -64.000000)">
            <g id="meia" transform="translate(268.000000, 69.000000)">
                <line x1="69.9211711" y1="47.3349285" x2="66.2922488" y2="41.6377133" id="Path-14" stroke="#000000" stroke-width="2.10983607" stroke-linecap="round" transform="translate(68.423164, 44.377764) scale(-1, 1) rotate(50.000000) translate(-68.423164, -44.377764) "></line>
                <line x1="65.2414913" y1="49.517099" x2="67.0224051" y2="42.7379166" id="Path-15" stroke="#000000" stroke-width="2.10983607" stroke-linecap="round" transform="translate(66.323459, 45.983818) scale(-1, 1) rotate(50.000000) translate(-66.323459, -45.983818) "></line>
                <line x1="74.7616812" y1="45.0777616" x2="67.8868573" y2="42.6264481" id="Path-13" stroke="#000000" stroke-width="2.10983607" stroke-linecap="round" transform="translate(71.132759, 43.869671) scale(-1, 1) rotate(50.000000) translate(-71.132759, -43.869671) "></line>
                <path d="M77.3719168,57.5549202 C69.3246096,67.1698742 62.146539,65.8404804 55.8377051,53.5667387" id="Path-16" stroke="#000000" stroke-width="2.10983607" stroke-linecap="round" transform="translate(66.604811, 58.728469) scale(-1, 1) rotate(50.000000) translate(-66.604811, -58.728469) "></path>
                <path d="M58.3200543,55.0171803 C56.9883482,62.3589058 54.6378832,69.6894341 51.2686594,77.0087653 C42.6310706,79.4951892 35.4864361,79.9217196 29.8347558,78.2883565 C21.3572354,75.8383118 14.0906959,75.6468306 7.76821118,86.5749839 C1.44572645,97.5031371 10.6919678,105.019918 15.0910145,106.157696 C32.8075797,112.44194 51.7294558,118.571299 71.8566428,124.545774 C80.6425239,126.12947 85.6772647,122.718969 86.9608652,114.314273 C88.8862659,101.707228 90.199961,99.6116059 91.4626261,94.8772957 C92.3044028,91.7210889 95.0942602,82.9221022 99.8321984,68.4803357 C102.78568,68.3348187 104.864531,66.9188597 106.068752,64.2324589 C107.272972,61.546058 109.113105,56.0024699 111.58915,47.6016944 C111.865387,43.43224 110.500519,40.7972493 107.494547,39.6967224 C104.488576,38.5961956 91.9932071,34.5038564 70.0084413,27.4197049 C65.4015006,26.1788516 62.5092227,27.2602085 61.3316076,30.6637758 C60.1539924,34.0673431 58.1550998,40.0346297 55.3349297,48.5656357 C55.12935,51.8768012 56.1243915,54.0273161 58.3200543,55.0171803 Z" id="Path-2" fill="#B33771" transform="translate(58.624023, 75.922425) scale(-1, 1) translate(-58.624023, -75.922425) "></path>
                <line x1="7.41580751" y1="76.0675162" x2="3.78688525" y2="70.3703011" id="Path-14" stroke="#000000" stroke-width="2.10983607" stroke-linecap="round"></line>
                <line x1="7.41580751" y1="76.0675162" x2="9.19672131" y2="69.2883338" id="Path-15" stroke="#000000" stroke-width="2.10983607" stroke-linecap="round"></line>
                <line x1="7.41580751" y1="76.0675162" x2="0.540983607" y2="73.6162027" id="Path-13" stroke="#000000" stroke-width="2.10983607" stroke-linecap="round"></line>
                <path d="M28.8469999,79.7683186 C20.7996926,89.3832726 13.6216221,88.0538788 7.31278817,75.7801371" id="Path-16" stroke="#000000" stroke-width="2.10983607" stroke-linecap="round"></path>
                <path d="M45.281897,60.1330822 C46.6780161,57.2248223 48.4174966,56.09934 50.5003384,56.7566351 C52.5831803,57.4139303 53.4403173,59.4330929 53.0717496,62.8141229" id="Path-18" stroke="#000000" stroke-width="2.10983607" stroke-linecap="round" transform="translate(49.218384, 59.694502) rotate(-39.000000) translate(-49.218384, -59.694502) "></path>
                <line x1="45.6295473" y1="61.0200454" x2="43.6696016" y2="58.9978677" id="Path-19" stroke="#000000" stroke-width="2.10983607" stroke-linecap="round" transform="translate(44.649574, 60.008957) rotate(-39.000000) translate(-44.649574, -60.008957) "></line>
                <line x1="46.3649322" y1="57.787377" x2="45.7943999" y2="54.7562243" id="Path-20" stroke="#000000" stroke-width="2.10983607" stroke-linecap="round" transform="translate(46.079666, 56.271801) rotate(-39.000000) translate(-46.079666, -56.271801) "></line>
                <line x1="48.7349383" y1="55.8408482" x2="50.1488106" y2="53.8365183" id="Path-21" stroke="#000000" stroke-width="2.10983607" stroke-linecap="round" transform="translate(49.441874, 54.838683) rotate(-39.000000) translate(-49.441874, -54.838683) "></line>
                <line x1="51.665396" y1="56.3541145" x2="54.7148597" y2="55.4883559" id="Path-22" stroke="#000000" stroke-width="2.10983607" stroke-linecap="round" transform="translate(53.190128, 55.921235) rotate(-39.000000) translate(-53.190128, -55.921235) "></line>
                <path d="M29.8372276,65.5669881 C31.2333467,62.6587282 32.9728272,61.5332459 35.055669,62.1905411 C37.1385109,62.8478363 37.9956479,64.8669989 37.6270802,68.2480289" id="Path-18" stroke="#000000" stroke-width="2.10983607" stroke-linecap="round" transform="translate(33.773714, 65.128408) scale(-1, 1) rotate(1.000000) translate(-33.773714, -65.128408) "></path>
                <line x1="38.4557257" y1="63.4436089" x2="36.49578" y2="61.4214312" id="Path-19" stroke="#000000" stroke-width="2.10983607" stroke-linecap="round" transform="translate(37.475753, 62.432520) scale(-1, 1) rotate(1.000000) translate(-37.475753, -62.432520) "></line>
                <line x1="34.2633078" y1="62.004514" x2="33.6927755" y2="58.9733613" id="Path-20" stroke="#000000" stroke-width="2.10983607" stroke-linecap="round" transform="translate(33.978042, 60.488938) scale(-1, 1) rotate(1.000000) translate(-33.978042, -60.488938) "></line>
                <line x1="29.7743143" y1="62.5544569" x2="31.1881866" y2="60.5501271" id="Path-21" stroke="#000000" stroke-width="2.10983607" stroke-linecap="round" transform="translate(30.481250, 61.552292) scale(-1, 1) rotate(1.000000) translate(-30.481250, -61.552292) "></line>
                <line x1="26.781041" y1="65.2237851" x2="29.8305046" y2="64.3580265" id="Path-22" stroke="#000000" stroke-width="2.10983607" stroke-linecap="round" transform="translate(28.305773, 64.790906) scale(-1, 1) rotate(1.000000) translate(-28.305773, -64.790906) "></line>
                <path d="M42.4823215,73.5582015 C43.8784406,70.6499416 45.6179211,69.5244592 47.7007629,70.1817544 C49.7836047,70.8390496 50.6407418,72.8582122 50.2721741,76.2392422" id="Path-18" stroke="#000000" stroke-width="2.10983607" stroke-linecap="round" transform="translate(46.418808, 73.119621) rotate(-210.000000) translate(-46.418808, -73.119621) "></path>
                <ellipse id="Oval" fill="#CF6A87" transform="translate(32.705961, 72.708190) rotate(-13.000000) translate(-32.705961, -72.708190) " cx="32.7059606" cy="72.70819" rx="4.14566929" ry="2.30314961"></ellipse>
                <ellipse id="Oval-Copy-9" fill="#CF6A87" transform="translate(53.635401, 66.491039) rotate(-13.000000) translate(-53.635401, -66.491039) " cx="53.6354009" cy="66.4910388" rx="4.14566929" ry="2.30314961"></ellipse>
                <circle id="Oval-Copy-40" fill="#000000" cx="61.2558253" cy="18.0388296" r="2"></circle>
                <circle id="Oval-Copy-41" fill="#000000" cx="13.2558253" cy="113.03883" r="2"></circle>
                <path d="M28.6240228,101.115746 C42.0945248,95.0896372 52.0945248,101.480996 58.6240228,120.289823 C51.7053103,122.250234 47.3474071,123.551296 45.5503133,124.193009 C37.886397,126.171207 33.3081713,124.125708 31.8156362,118.056509 C30.323101,111.987311 29.2592299,106.34039 28.6240228,101.115746 Z" id="Path-98-Copy" fill="#97275B"></path>
                <polygon id="Path-96-Copy-3" stroke="#000000" stroke-width="2" transform="translate(22.431289, 19.268335) rotate(-29.000000) translate(-22.431289, -19.268335) " points="6.64865177 26.7303705 34.0488396 32.5366699 38.2139269 12.3001155 29.2598804 23.3423172 24.6326658 9.53857476 15.6244843 20.1239307 11.6826658 6"></polygon>
            </g>
        </g>
    </g>
</svg>