<?xml version="1.0" encoding="UTF-8"?>
<svg width="121px" height="120px" viewBox="0 0 121 120" version="1.1" xmlns="http://www.w3.org/2000/svg" xmlns:xlink="http://www.w3.org/1999/xlink">
    <title>Group 19</title>
    <g id="casa-damiao" stroke="none" stroke-width="1" fill="none" fill-rule="evenodd">
        <g id="chiclete" transform="translate(-454.000000, -77.000000)">
            <g id="Group-19" transform="translate(454.000000, 77.000000)">
                <g id="Group-2-Copy-8" transform="translate(60.500000, 60.000000) rotate(-30.000000) translate(-60.500000, -60.000000) translate(16.000000, 17.000000)">
                    <circle id="Oval" fill="#DC3A14" cx="45.2325501" cy="42.9767442" r="42.9767442"></circle>
                    <path d="M27.7352956,38.7554504 C34.6460096,43.5844952 35.5760658,49.2949364 30.525464,55.886774" id="Path" stroke="#000000" stroke-width="1.95348837"></path>
                    <line x1="33.7243485" y1="45.8390617" x2="57.942622" y2="42.9767442" id="Path-2" stroke="#000000" stroke-width="1.95348837"></line>
                    <path d="M62.2459003,35.2472924 C56.4460771,40.456297 56.7494238,46.2873522 63.1559404,52.7404579" id="Path-3" stroke="#000000" stroke-width="1.95348837"></path>
                    <circle id="Oval" fill="#000000" cx="67.372085" cy="38.4186047" r="1.30232558"></circle>
                    <circle id="Oval-Copy" fill="#000000" cx="73.2325501" cy="42.3255814" r="1.30232558"></circle>
                    <circle id="Oval-Copy-2" fill="#000000" cx="68.0232478" cy="48.1860465" r="1.30232558"></circle>
                    <circle id="Oval-Copy-3" fill="#000000" cx="62.8139455" cy="43.627907" r="1.30232558"></circle>
                    <circle id="Oval-Copy-4" fill="#000000" cx="22.4418524" cy="43.627907" r="1.30232558"></circle>
                    <circle id="Oval-Copy-5" fill="#000000" cx="18.5348757" cy="49.4883721" r="1.30232558"></circle>
                    <circle id="Oval-Copy-6" fill="#000000" cx="25.6976664" cy="52.744186" r="1.30232558"></circle>
                    <circle id="Oval-Copy-7" fill="#000000" cx="28.3023175" cy="46.8837209" r="1.30232558"></circle>
                    <path d="M46.842364,5.58748663 C55.2149461,17.8086385 67.2978502,22.7947836 83.0910762,20.5459219" id="Path-6" stroke="#000000" stroke-width="1.95348837"></path>
                    <path d="M2.32353213,11.1465783 C12.1003912,24.9693028 24.384421,29.5808959 39.1756214,24.9813576" id="Path-6-Copy" stroke="#000000" stroke-width="1.95348837" transform="translate(20.749577, 18.925253) scale(-1, 1) rotate(15.000000) translate(-20.749577, -18.925253) "></path>
                    <path d="M53.8445749,4.76076707 C59.6288445,12.0202629 67.8525709,15.2631482 78.5157542,14.4894229" id="Path-7" stroke="#000000" stroke-width="1.95348837"></path>
                    <path d="M5.93116105,22.7401594 C18.9887179,21.8393192 27.0777709,16.3070529 30.1983202,6.1433604" id="Path-8" stroke="#000000" stroke-width="1.95348837"></path>
                </g>
                <circle id="Oval" fill="#000000" cx="60" cy="45" r="3"></circle>
                <circle id="Oval-Copy-16" fill="#000000" cx="48" cy="53" r="3"></circle>
                <g id="Group-2" transform="translate(11.000000, 7.000000)">
                    <path d="M101.630603,23.8230727 C97.6579995,30.1234348 92.6279929,35.8178525 90.777538,37.8474014 C89.0372291,33.043649 86.4524666,28.6487267 83.2141704,24.8159455 C85.7401883,22.2826597 90.9097133,16.3473244 87.1133434,13.3249027 C85.3803776,11.9451015 80.4017726,13.3395038 73.9618955,16.5955426 C62.205632,22.5308779 45.5735664,34.6570674 34.9775088,47.3965018 C25.6224309,58.6393264 19.0577216,70.3566858 15.8194254,78.9421155 C13.3888674,85.4030894 12.8381368,90.0827327 14.416898,91.4406323 C16.179236,92.9591436 18.7860278,91.791058 21.0183227,90.1630385 C22.3547624,89.1920673 23.5663698,88.0458833 24.3741081,87.2209228 C27.7078643,89.6593016 31.4087742,91.6377467 35.3813779,93.0540506 C31.3940881,97.354066 13.6899335,115.145471 2.6679775,104.829814 C-3.49286267,99.0696918 1.82352385,84.4686209 10.3928927,69.9186537 C14.4682995,63.0050466 19.2780138,56.1060406 23.9408666,50.1707052 L23.977582,50.112301 L23.9922682,50.0976999 C26.1658184,47.3307969 28.3099964,44.7756095 30.3293421,42.5270446 C33.5676383,38.9205801 36.8132776,35.5477327 40.0295446,32.4231035 C48.745775,23.9325808 57.2857715,17.186886 65.2016067,12.1495165 C84.1393979,0.118234041 99.5451699,-2.11572981 105.456345,5.15560352 C108.988365,9.49212159 105.926302,17.0116731 101.630603,23.8230727" id="Fill-69-Copy" fill="#8ACAB7"></path>
                    <path d="M10.8426623,108 C7.9511861,108.000732 5.17103543,107.086931 2.71440134,104.820734 C0.828590997,103.083194 0,100.54315 0,97.443695 C-0.000747151485,90.2387262 4.47767885,80.0097205 10.574435,69.8063423 C14.7211257,62.872292 19.6149679,55.9528859 24.3593799,50 C23.2012951,51.5376458 3.80524251,77.6922686 5.84496607,95.1335653 C6.50096507,100.755491 9.17950314,102.687799 12.5513978,102.687799 C19.965382,102.687799 30.732582,93.3469673 30.732582,93.3469673 C30.732582,93.3469673 24.4938671,92.3658028 21.385717,90.110589 C22.7455327,89.1367467 23.9783326,87.9871734 24.8001992,87.1597735 C28.192267,89.6053625 31.9579105,91.5896578 36,93.0101497 C35.9043646,93.1111949 35.8012577,93.2202946 35.6906793,93.3367163 C32.1297553,97.0673379 20.8388021,107.998535 10.8426623,108" id="Fill-71-Copy" fill="#4AB593"></path>
                    <path d="M41,32 C49.5899431,23.3535616 58.0062058,16.4839924 65.8073505,11.3541192 C77.3730178,3.76190697 87.603517,0 95.0971026,0 C99.6960148,0 103.2637,1.4155476 105.478848,4.23177362 C106.542641,5.58189675 106.999276,7.23460806 107,9.07690163 C107.001447,13.2618373 104.648077,18.4259096 101.708536,23.2420427 C104.62492,17.2125831 106.079493,9.78541889 99.9644958,4.49941917 C98.5518952,3.2779146 96.6370688,2.73890618 94.3575136,2.73890618 C79.2835022,2.73890618 48.2540514,26.3169927 41,32" id="Fill-70-Copy" fill="#4AB593"></path>
                </g>
            </g>
        </g>
    </g>
</svg>