<?xml version="1.0" encoding="UTF-8"?>
<svg width="97px" height="99px" viewBox="0 0 97 99" version="1.1" xmlns="http://www.w3.org/2000/svg" xmlns:xlink="http://www.w3.org/1999/xlink">
    <title>ourico</title>
    <g id="casa-damiao" stroke="none" stroke-width="1" fill="none" fill-rule="evenodd">
        <g id="formiga" transform="translate(-91.000000, -327.000000)">
            <g id="ourico" transform="translate(91.000000, 327.000000)">
                <polyline id="Path-153" fill="#8E4938" points="60.6552465 84.1527253 80.1446815 84.1527253 77.1378445 72.9632272 89.0219703 74.4361193 83.1838992 63.7135605 94.3236845 61.6943343 86.4755202 52.9083503 96.510626 48.1527253 86.4755202 42.6910247 94.9277088 34.4630101 83.1838992 32.1768509 89.0219703 21.7220416 77.1378445 23.1523086 80.1446815 12.0622196 69.2643569 15.6701749 68.3759638 3.99439197 59.8008947 10.9127053 55.056132 -1.13102911e-13 48.9770286 9.2488364 41.7227986 -1.13686838e-13 37.681567 10.9127053 28.0209147 3.99439197 28.0209147 15.6701749 16.7657214 10.9127053 19.4275796 23.1523086 7.50360061 21.7220416 13.7443546 32.1768509 1.98061845 34.4630101 10.1102456 42.6910247 0 48.4648375 10.1102456 52.9083503 1.42848629 62.2555995 13.7443546 64.3043004 7.50360061 74.4361193 19.4275796 72.9632272 16.7657214 84.1527253 35.5826345 84.1527253"></polyline>
                <path d="M66.3894653,68.1527253 C70.8077433,68.1527253 74.3894653,71.7344473 74.3894653,76.1527253 C74.3894653,80.5710033 70.8077433,84.1527253 66.3894653,84.1527253 C65.0157936,84.1527253 63.7229858,83.8065057 62.5935428,83.1965672 L48.388632,97.2125515 L33.7602477,83.4100302 C32.7358622,83.8866308 31.5937386,84.1527253 30.3894653,84.1527253 C25.9711873,84.1527253 22.3894653,80.5710033 22.3894653,76.1527253 C22.3894653,71.7344473 25.9711873,68.1527253 30.3894653,68.1527253 C34.2184971,68.1527253 37.4192291,70.8427963 38.2048595,74.4361363 L58.5740711,74.4361363 C59.3597015,70.8427963 62.5604335,68.1527253 66.3894653,68.1527253 Z" id="Combined-Shape" fill="#F7E9B1"></path>
                <polyline id="Path-154" stroke="#000000" stroke-width="2" points="66 53.137051 69.2410992 50 72.5427313 53"></polyline>
                <polyline id="Path-154-Copy" stroke="#000000" stroke-width="2" points="38 23.137051 41.2410992 20 44.682395 23"></polyline>
                <polyline id="Path-154-Copy-2" stroke="#000000" stroke-width="2" points="23 49.137051 26.2410992 46 29.6344217 49.137051"></polyline>
                <polyline id="Path-154-Copy-3" stroke="#000000" stroke-width="2" points="45 44.137051 48.2410992 41 51.682395 44.137051"></polyline>
                <polyline id="Path-154-Copy-4" stroke="#000000" stroke-width="2" points="65 35.137051 68.2410992 32 71.6134851 35.137051"></polyline>
                <circle id="Oval" fill="#000000" cx="42.5" cy="83.5" r="1.5"></circle>
                <circle id="Oval-Copy-65" fill="#000000" cx="53.5" cy="83.5" r="1.5"></circle>
                <circle id="Oval" fill="#000000" cx="48.5" cy="96.5" r="2.5"></circle>
            </g>
        </g>
    </g>
</svg>