<?xml version="1.0" encoding="UTF-8"?>
<svg width="97px" height="88px" viewBox="0 0 97 88" version="1.1" xmlns="http://www.w3.org/2000/svg" xmlns:xlink="http://www.w3.org/1999/xlink">
    <title>Group 27</title>
    <g id="casa-damiao" stroke="none" stroke-width="1" fill="none" fill-rule="evenodd">
        <g id="chiclete" transform="translate(-280.000000, -366.000000)">
            <g id="Group-27" transform="translate(280.000000, 366.000000)">
                <path d="M27.4715488,75.9038435 C23.3602689,75.4054815 2.5031384,69.6493026 3.90618108,41.4519039 C5.30922376,13.2545052 28.2078975,4.54436315 35.7394394,4.54436315 C34.3889141,3.72799464 29.8903878,2.85814134 29.8903878,2.29316514 C29.8903878,1.72818893 31.5515947,1.29381509 32.9889119,1.51756668 C33.9471233,1.6667344 37.1660688,2.67566656 42.6457484,4.54436315 C43.3391618,4.51211565 43.4684743,4.33166785 43.0336858,4.00301975 C42.5988974,3.67437165 41.1142225,2.71772651 38.5796611,1.13308434 C38.1225758,0.688345238 38.1225758,0.340210436 38.5796611,0.0886799323 C39.0367463,-0.162850572 40.0831777,0.120697094 41.7189552,0.939322928 C44.6266663,3.06074778 46.45814,4.81782195 47.2133765,6.21054543 C49.6102411,7.03976687 65.9590328,12.4217061 61.9099445,32.7157953 C65.6688053,33.1826313 68.8090884,33.9739849 68.7927589,46.6779338 C75.7079129,40.758122 85.3111264,31.6319872 87.783312,32.3025509 C89.4314356,32.7495934 83.8399033,40.0478477 71.008715,54.1973139 C85.7699623,46.0727864 93.7920348,42.7884246 95.0749325,44.3442283 C96.3578302,45.900032 89.5826303,51.1909255 74.7493329,60.2169087 C88.6375022,59.1962293 95.8299847,59.613604 96.3267805,61.4690331 C96.8235762,63.3244621 84.4291112,65.8097309 59.1433854,68.9248395 C52.7760703,75.9205201 42.2187915,78.2468548 27.4715488,75.9038435 Z" id="Path-54" fill="#FAD390"></path>
                <path d="M27.4715488,75.9038435 C23.3602689,75.4054815 2.5031384,69.6493026 3.90618108,41.4519039 C5.30922376,13.2545052 28.2078975,4.54436315 35.7394394,4.54436315 C34.3889141,3.72799464 29.8903878,2.85814134 29.8903878,2.29316514 C29.8903878,1.72818893 31.5515947,1.29381509 32.9889119,1.51756668 C33.9471233,1.6667344 37.1660688,2.67566656 42.6457484,4.54436315 C43.3391618,4.51211565 43.4684743,4.33166785 43.0336858,4.00301975 C42.5988974,3.67437165 41.1142225,2.71772651 38.5796611,1.13308434 C38.1225758,0.688345238 38.1225758,0.340210436 38.5796611,0.0886799323 C39.0367463,-0.162850572 40.0831777,0.120697094 41.7189552,0.939322928 C44.6266663,3.06074778 46.45814,4.81782195 47.2133765,6.21054543 C49.6102411,7.03976687 65.9590328,12.4217061 61.9099445,32.7157953 C65.6688053,33.1826313 68.8090884,33.9739849 68.7927589,46.6779338 C75.7079129,40.758122 85.3111264,31.6319872 87.783312,32.3025509 C89.4314356,32.7495934 83.8399033,40.0478477 71.008715,54.1973139 C85.7699623,46.0727864 93.7920348,42.7884246 95.0749325,44.3442283 C96.3578302,45.900032 89.5826303,51.1909255 74.7493329,60.2169087 C88.6375022,59.1962293 95.8299847,59.613604 96.3267805,61.4690331 C96.8235762,63.3244621 84.4291112,65.8097309 59.1433854,68.9248395 C52.7760703,75.9205201 42.2187915,78.2468548 27.4715488,75.9038435 Z" id="Path-54" fill="#F5CD79"></path>
                <g id="Group-28" transform="translate(23.000000, 22.000000) scale(-1, 1) translate(-23.000000, -22.000000) translate(3.000000, 11.000000)">
                    <path d="M6,13.920524 L39.8859783,0 C40.7109558,10.0359388 37.0592328,16.8198184 28.9308093,20.3516387 C20.8023859,23.883459 13.1587827,21.7397541 6,13.920524 Z" id="Path-32" stroke="#000000" stroke-width="2" stroke-linecap="round"></path>
                    <path d="M6,14 C16.0373474,18 26.3706807,18 37,14" id="Path-33" stroke="#000000" stroke-width="2" stroke-linecap="round"></path>
                    <circle id="Oval" fill="#000000" cx="10.5" cy="4.5" r="2.5"></circle>
                    <circle id="Oval-Copy-10" fill="#000000" cx="2.5" cy="8.5" r="2.5"></circle>
                </g>
                <path d="M5.89299566,29.6396445 C4.0305643,30.1197637 -1.00142782,32.7765892 0.176619442,37.9208026 C0.961984283,41.3502782 2.1826385,44.9488228 3.83858208,48.7164365 C3.83858208,39.1289782 4.52338661,32.7700475 5.89299566,29.6396445 Z" id="Path-55" fill="#E8B549"></path>
                <path d="M7.08691406,60.2529297 C7.08691406,51.2490234 7.98788542,39.9704368 21.8480454,38.3928054 C35.7082054,36.815174 50.7574689,64.4813182 50.7574689,70.4729959 C50.7574689,71.4531357 51.2925932,72.5306629 52.3628417,73.7055775 C31.4493977,80.7204224 16.3574219,76.2362064 7.08691406,60.2529297 Z" id="Path-61" fill="#E8B549"></path>
                <path d="M59.3374232,32.8901925 C57.0819409,33.3744578 52.3628417,34.2854958 52.3628417,39.5115257 C52.3628417,44.7375557 52.9253302,57.6706461 61.6070023,64.4813182 C65.8926951,58.8893252 70.7494451,51.9517822 68.0130143,38.0172687 C67.6357186,36.2139885 65.8457059,31.7862224 59.3374232,32.8901925 Z" id="Path-56" fill="#E8B549"></path>
                <polyline id="Path-57" stroke="#000000" stroke-width="2" stroke-linejoin="round" points="21.8480454 71.1175774 21.8480454 81.4040694 15.8325195 80.1286621"></polyline>
                <polyline id="Path-58" stroke="#000000" stroke-width="2" stroke-linecap="square" stroke-linejoin="round" points="16.618975 82.8159571 21.8480454 81.4040694 19.2335102 84.4956833"></polyline>
                <polyline id="Path-59" stroke="#000000" stroke-width="2" stroke-linejoin="round" points="38.4222472 71.1175774 39.8460204 83.3886727 45.708616 81.4040694"></polyline>
                <polyline id="Path-60" stroke="#000000" stroke-width="2" stroke-linejoin="round" points="45.708616 84.2278448 39.8460204 83.3886727 42.3913574 87"></polyline>
            </g>
        </g>
    </g>
</svg>