<?xml version="1.0" encoding="UTF-8"?>
<svg width="99px" height="88px" viewBox="0 0 99 88" version="1.1" xmlns="http://www.w3.org/2000/svg" xmlns:xlink="http://www.w3.org/1999/xlink">
    <title>Group 31 Copy 2</title>
    <g id="casa-damiao" stroke="none" stroke-width="1" fill="none" fill-rule="evenodd">
        <g id="chiclete" transform="translate(-466.000000, -371.000000)">
            <g id="Group-31-Copy-2" transform="translate(466.000000, 371.000000)">
                <path d="M50.6498527,14.2481443 C40.8136224,12.200781 21.7461422,10.5478514 12.9811033,32.7352533 C4.21606438,54.9226553 7.69965807,64.7137684 11.8101072,69.1215809 C15.9205564,73.5293933 30.4141108,88.6573227 65.1222157,87.0577134 C72.6663562,87.0577134 90.0863754,80.4834426 86.4927231,50.447434 C82.8990709,20.4114254 67.2878407,17.687988 50.6498527,14.2481443 Z" id="Path-71" fill="#FFFFFF"></path>
                <path d="M49.7108727,27.6897955 C44.3915446,22.5010389 30.1233237,14.5208991 20.6295738,37.3180667 C17.2402079,44.6529168 28.20009,51.7491351 37.6223343,49.0565959 C43.9195813,47.2570688 53.5071753,35.8199028 49.7108727,27.6897955 Z" id="Path-72" fill="#000000" opacity="0.631301153"></path>
                <g id="Group-33" transform="translate(52.793573, 21.471907) rotate(14.000000) translate(-52.793573, -21.471907) translate(46.293573, 15.471907)" stroke="#000000" stroke-linecap="round" stroke-width="1.34139116">
                    <path d="M6.84180101,5.32418146e-14 C4.42124178,2.69306759 4.42124178,4.5122098 6.84180101,5.45742664 C10.4726399,6.8752519 5.02638159,10.6010219 5.9340913,11.7072495" id="Path-23"></path>
                    <path d="M11.4984551,2.06513705e-13 C9.43066476,1.7048525 9.08984317,3.10666976 10.4759904,4.20545176 C12.5552112,5.85362476 12.5209199,7.62967565 11.4984551,9.66846258" id="Path-24"></path>
                    <path d="M2.4259881,2.06513705e-13 C-2.0167354e-16,2.61675036 -0.606497024,4.56795861 0.606497024,5.85362476 C1.81949107,7.1392909 2.02165675,8.41090351 1.21299405,9.66846258" id="Path-26"></path>
                </g>
                <path d="M60,44.7692308 C62.8703665,40.1025641 66.2236158,39.7692308 70.0597476,43.7692308" id="Path-36" stroke="#000000" stroke-width="1.95348837" transform="translate(65.029874, 42.884615) rotate(16.000000) translate(-65.029874, -42.884615) "></path>
                <path d="M32.5366211,53.4612825 C39.3292964,48.3433437 45.0704745,46.3784172 49.7601554,47.5665031 C54.4498363,48.754589 58.6857249,52.7699047 62.4678212,59.6124502" id="Path-73" stroke="#000000" stroke-width="1.39999998"></path>
                <ellipse id="Oval" fill="#000000" transform="translate(48.030321, 54.554198) rotate(12.000000) translate(-48.030321, -54.554198) " cx="48.0303214" cy="54.5541983" rx="6.99999988" ry="3.49999994"></ellipse>
                <path d="M46.900341,57.8699697 C42.5289869,68.7912911 43.7788241,75.0748848 50.6498527,76.7207506 C57.5208812,78.3666165 61.7988108,74.7870918 63.4836415,65.9821766" id="Path-74" stroke="#000000" stroke-width="1.39999998"></path>
                <path d="M27.135937,60.7684072 C27.7580073,66.8574045 29.905631,70.2072416 33.578808,70.8179187 C39.0885736,71.7339343 43.1508293,70.985741 46.900341,57.8699697" id="Path-75" stroke="#000000" stroke-width="1.39999998"></path>
                <path d="M65.1423817,17.8852048 C71.8525378,8.42335598 81.4153306,2.46162105 93.8307601,0 C83.5132798,8.00351549 75.3583483,18.4614743 76.1280749,24.563232" id="Path-76" fill="#FFFFFF"></path>
                <path d="M93.8307601,0 C96.4700937,5.72327788 107.046678,26.9045406 86.0945298,46.175048 C83.2783203,35.5458984 79.6365208,29.5336906 76.1280749,24.563232 C75.0717773,20.6646969 80.2856445,8.64432402 93.8307601,0 Z" id="Path-77" fill="#D5D5D8"></path>
                <path d="M34.479101,13.6640134 C22.4034176,2.97124018 11.1430337,-1.19378253 0.697949207,1.16894529 C0.328580724,3.13017573 0.095930988,4.49223625 9.09494702e-13,5.25512686 C10.5034831,9.47264005 17.3097168,14.7161297 20.4187012,20.9855957" id="Path-78" fill="#FFFFFF"></path>
                <path d="M2.27373675e-12,5.25512686 C2.27373675e-12,10.5961239 0.176806817,27.3485842 10.5202637,39.0168457 C14.3098145,29.5251634 16.4712887,25.2386715 20.4187012,20.9855957 C18.1786136,16.4310062 13.6362305,10.2583008 2.27373675e-12,5.25512686 Z" id="Path-79" fill="#D5D5D8"></path>
                <path d="M32,38.7692308 C34.8703665,34.1025641 38.2236158,33.7692308 42.0597476,37.7692308" id="Path-36-Copy-3" stroke="#000000" stroke-width="1.95348837" transform="translate(37.029874, 36.884615) rotate(16.000000) translate(-37.029874, -36.884615) "></path>
                <circle id="Oval-Copy-2" fill="#000000" cx="55.3023256" cy="64.3023256" r="1.30232558"></circle>
                <circle id="Oval-Copy-31" fill="#000000" cx="39.3023256" cy="59.3023256" r="1.30232558"></circle>
                <circle id="Oval-Copy-29" fill="#000000" cx="51.3023256" cy="65.3023256" r="1.30232558"></circle>
                <circle id="Oval-Copy-32" fill="#000000" cx="35.3023256" cy="60.3023256" r="1.30232558"></circle>
                <circle id="Oval-Copy-30" fill="#000000" cx="54.3023256" cy="68.3023256" r="1.30232558"></circle>
                <circle id="Oval-Copy-33" fill="#000000" cx="38.3023256" cy="63.3023256" r="1.30232558"></circle>
            </g>
        </g>
    </g>
</svg>